<?xml version="1.0" encoding="UTF-8" standalone="no"?>
<!DOCTYPE svg PUBLIC "-//W3C//DTD SVG 1.1//EN"
 "http://www.w3.org/Graphics/SVG/1.1/DTD/svg11.dtd">
<!-- Generated by graphviz version 2.50.0 (20211204.2007)
 -->
<!-- Title: Aceita sequências com o mesmo número de zeros e uns Pages: 1 -->
<svg width="339pt" height="321pt"
 viewBox="0.00 0.00 339.00 321.37" xmlns="http://www.w3.org/2000/svg" xmlns:xlink="http://www.w3.org/1999/xlink">
<g id="graph0" class="graph" transform="scale(1 1) rotate(0) translate(4 317.37)">
<title>Aceita sequências com o mesmo número de zeros e uns</title>
<polygon fill="white" stroke="transparent" points="-4,4 -4,-317.37 335,-317.37 335,4 -4,4"/>
<!-- Start -->
<g id="node1" class="node">
<title>Start</title>
</g>
<!-- A -->
<g id="node2" class="node">
<title>A</title>
<ellipse fill="none" stroke="black" cx="109" cy="-70.37" rx="18" ry="18"/>
<text text-anchor="middle" x="109" y="-66.67" font-family="Times New Roman,serif" font-size="14.00">A</text>
</g>
<!-- Start&#45;&gt;A -->
<g id="edge1" class="edge">
<title>Start&#45;&gt;A</title>
<path fill="none" stroke="black" d="M54.19,-70.37C62.65,-70.37 72.05,-70.37 80.6,-70.37"/>
<polygon fill="black" stroke="black" points="90.83,-70.37 80.83,-74.87 85.83,-70.37 80.83,-70.37 80.83,-70.37 80.83,-70.37 85.83,-70.37 80.83,-65.87 90.83,-70.37 90.83,-70.37"/>
</g>
<!-- A&#45;&gt;A -->
<g id="edge2" class="edge">
<title>A&#45;&gt;A</title>
<path fill="none" stroke="black" d="M102.62,-87.41C101.32,-97.23 103.45,-106.37 109,-106.37 112.47,-106.37 114.6,-102.8 115.4,-97.73"/>
<polygon fill="black" stroke="black" points="115.38,-87.41 119.9,-97.4 115.39,-92.41 115.4,-97.41 115.4,-97.41 115.4,-97.41 115.39,-92.41 110.9,-97.42 115.38,-87.41 115.38,-87.41"/>
<text text-anchor="middle" x="109" y="-110.17" font-family="Times New Roman,serif" font-size="14.00">XXR</text>
</g>
<!-- D -->
<g id="node3" class="node">
<title>D</title>
<ellipse fill="none" stroke="black" cx="212" cy="-229.37" rx="18" ry="18"/>
<text text-anchor="middle" x="212" y="-225.67" font-family="Times New Roman,serif" font-size="14.00">D</text>
</g>
<!-- A&#45;&gt;D -->
<g id="edge4" class="edge">
<title>A&#45;&gt;D</title>
<path fill="none" stroke="black" d="M118.56,-85.78C132.63,-110.79 161.89,-161.54 190,-202.37 191.16,-204.06 192.39,-205.78 193.65,-207.5"/>
<polygon fill="black" stroke="black" points="200,-215.87 190.37,-210.63 196.98,-211.89 193.96,-207.9 193.96,-207.9 193.96,-207.9 196.98,-211.89 197.54,-205.18 200,-215.87 200,-215.87"/>
<text text-anchor="middle" x="158.5" y="-177.17" font-family="Times New Roman,serif" font-size="14.00">0XR</text>
</g>
<!-- B -->
<g id="node5" class="node">
<title>B</title>
<ellipse fill="none" stroke="black" cx="212" cy="-109.37" rx="18" ry="18"/>
<text text-anchor="middle" x="212" y="-105.67" font-family="Times New Roman,serif" font-size="14.00">B</text>
</g>
<!-- A&#45;&gt;B -->
<g id="edge3" class="edge">
<title>A&#45;&gt;B</title>
<path fill="none" stroke="black" d="M126.23,-76.64C142.2,-82.81 166.85,-92.32 185.45,-99.51"/>
<polygon fill="black" stroke="black" points="194.81,-103.12 183.86,-103.72 190.15,-101.32 185.48,-99.52 185.48,-99.52 185.48,-99.52 190.15,-101.32 187.11,-95.32 194.81,-103.12 194.81,-103.12"/>
<text text-anchor="middle" x="158.5" y="-96.17" font-family="Times New Roman,serif" font-size="14.00">1XR</text>
</g>
<!-- E -->
<g id="node6" class="node">
<title>E</title>
<ellipse fill="none" stroke="black" cx="212" cy="-51.37" rx="18" ry="18"/>
<ellipse fill="none" stroke="black" cx="212" cy="-51.37" rx="22" ry="22"/>
<text text-anchor="middle" x="212" y="-47.67" font-family="Times New Roman,serif" font-size="14.00">E</text>
</g>
<!-- A&#45;&gt;E -->
<g id="edge5" class="edge">
<title>A&#45;&gt;E</title>
<path fill="none" stroke="black" d="M126.69,-66.35C132.47,-65.01 139.01,-63.56 145,-62.37 156.4,-60.12 168.97,-57.95 180.05,-56.14"/>
<polygon fill="black" stroke="black" points="190.13,-54.53 180.97,-60.55 185.2,-55.32 180.26,-56.11 180.26,-56.11 180.26,-56.11 185.2,-55.32 179.55,-51.67 190.13,-54.53 190.13,-54.53"/>
<text text-anchor="middle" x="158.5" y="-66.17" font-family="Times New Roman,serif" font-size="14.00">ΔΔS</text>
</g>
<!-- D&#45;&gt;D -->
<g id="edge13" class="edge">
<title>D&#45;&gt;D</title>
<path fill="none" stroke="black" d="M207.36,-246.78C206.49,-256.46 208.04,-265.37 212,-265.37 214.48,-265.37 216.01,-261.89 216.6,-256.92"/>
<polygon fill="black" stroke="black" points="216.64,-246.78 221.1,-256.8 216.62,-251.78 216.6,-256.78 216.6,-256.78 216.6,-256.78 216.62,-251.78 212.1,-256.76 216.64,-246.78 216.64,-246.78"/>
<text text-anchor="middle" x="212" y="-269.17" font-family="Times New Roman,serif" font-size="14.00">00R</text>
</g>
<!-- D&#45;&gt;D -->
<g id="edge14" class="edge">
<title>D&#45;&gt;D</title>
<path fill="none" stroke="black" d="M204.54,-245.96C199.86,-263.54 202.35,-283.37 212,-283.37 219.84,-283.37 222.95,-270.28 221.34,-255.94"/>
<polygon fill="black" stroke="black" points="219.46,-245.96 225.73,-254.96 220.38,-250.87 221.31,-255.79 221.31,-255.79 221.31,-255.79 220.38,-250.87 216.88,-256.62 219.46,-245.96 219.46,-245.96"/>
<text text-anchor="middle" x="212" y="-287.17" font-family="Times New Roman,serif" font-size="14.00">XXR</text>
</g>
<!-- C -->
<g id="node4" class="node">
<title>C</title>
<ellipse fill="none" stroke="black" cx="313" cy="-109.37" rx="18" ry="18"/>
<text text-anchor="middle" x="313" y="-105.67" font-family="Times New Roman,serif" font-size="14.00">C</text>
</g>
<!-- D&#45;&gt;C -->
<g id="edge15" class="edge">
<title>D&#45;&gt;C</title>
<path fill="none" stroke="black" d="M224.36,-215.61C241.44,-194.9 273.9,-155.56 294.16,-131"/>
<polygon fill="black" stroke="black" points="300.78,-122.98 297.88,-133.56 297.59,-126.84 294.41,-130.69 294.41,-130.69 294.41,-130.69 297.59,-126.84 290.94,-127.83 300.78,-122.98 300.78,-122.98"/>
<text text-anchor="middle" x="264.5" y="-183.17" font-family="Times New Roman,serif" font-size="14.00">1XL</text>
</g>
<!-- C&#45;&gt;A -->
<g id="edge12" class="edge">
<title>C&#45;&gt;A</title>
<path fill="none" stroke="black" d="M305.43,-92.93C294.66,-68.56 270.74,-23.74 234,-5.37 195.98,13.64 152.03,-23.67 128,-49.22"/>
<polygon fill="black" stroke="black" points="121.21,-56.69 124.6,-46.26 124.57,-52.99 127.93,-49.29 127.93,-49.29 127.93,-49.29 124.57,-52.99 131.26,-52.31 121.21,-56.69 121.21,-56.69"/>
<text text-anchor="middle" x="212" y="-9.17" font-family="Times New Roman,serif" font-size="14.00">ΔΔR</text>
</g>
<!-- C&#45;&gt;C -->
<g id="edge9" class="edge">
<title>C&#45;&gt;C</title>
<path fill="none" stroke="black" d="M310.12,-127.16C309.64,-136.69 310.59,-145.37 313,-145.37 314.47,-145.37 315.4,-142.15 315.79,-137.47"/>
<polygon fill="black" stroke="black" points="315.88,-127.16 320.29,-137.2 315.83,-132.16 315.79,-137.16 315.79,-137.16 315.79,-137.16 315.83,-132.16 311.29,-137.12 315.88,-127.16 315.88,-127.16"/>
<text text-anchor="middle" x="313" y="-149.17" font-family="Times New Roman,serif" font-size="14.00">11L</text>
</g>
<!-- C&#45;&gt;C -->
<g id="edge10" class="edge">
<title>C&#45;&gt;C</title>
<path fill="none" stroke="black" d="M308.27,-126.79C305.58,-144.17 307.16,-163.37 313,-163.37 317.7,-163.37 319.64,-150.94 318.81,-137.03"/>
<polygon fill="black" stroke="black" points="317.73,-126.79 323.26,-136.26 318.25,-131.77 318.78,-136.74 318.78,-136.74 318.78,-136.74 318.25,-131.77 314.31,-137.22 317.73,-126.79 317.73,-126.79"/>
<text text-anchor="middle" x="313" y="-167.17" font-family="Times New Roman,serif" font-size="14.00">00L</text>
</g>
<!-- C&#45;&gt;C -->
<g id="edge11" class="edge">
<title>C&#45;&gt;C</title>
<path fill="none" stroke="black" d="M307.09,-126.73C301.51,-151.19 303.48,-181.37 313,-181.37 321.25,-181.37 323.83,-158.68 320.73,-136.69"/>
<polygon fill="black" stroke="black" points="318.91,-126.73 325.14,-135.76 319.81,-131.65 320.71,-136.56 320.71,-136.56 320.71,-136.56 319.81,-131.65 316.28,-137.37 318.91,-126.73 318.91,-126.73"/>
<text text-anchor="middle" x="313" y="-185.17" font-family="Times New Roman,serif" font-size="14.00">XXL</text>
</g>
<!-- B&#45;&gt;C -->
<g id="edge8" class="edge">
<title>B&#45;&gt;C</title>
<path fill="none" stroke="black" d="M230.24,-109.37C245.29,-109.37 267.38,-109.37 284.81,-109.37"/>
<polygon fill="black" stroke="black" points="294.95,-109.37 284.95,-113.87 289.95,-109.37 284.95,-109.37 284.95,-109.37 284.95,-109.37 289.95,-109.37 284.95,-104.87 294.95,-109.37 294.95,-109.37"/>
<text text-anchor="middle" x="264.5" y="-113.17" font-family="Times New Roman,serif" font-size="14.00">0XL</text>
</g>
<!-- B&#45;&gt;B -->
<g id="edge6" class="edge">
<title>B&#45;&gt;B</title>
<path fill="none" stroke="black" d="M207.36,-126.78C206.49,-136.46 208.04,-145.37 212,-145.37 214.48,-145.37 216.01,-141.89 216.6,-136.92"/>
<polygon fill="black" stroke="black" points="216.64,-126.78 221.1,-136.8 216.62,-131.78 216.6,-136.78 216.6,-136.78 216.6,-136.78 216.62,-131.78 212.1,-136.76 216.64,-126.78 216.64,-126.78"/>
<text text-anchor="middle" x="212" y="-149.17" font-family="Times New Roman,serif" font-size="14.00">11R</text>
</g>
<!-- B&#45;&gt;B -->
<g id="edge7" class="edge">
<title>B&#45;&gt;B</title>
<path fill="none" stroke="black" d="M204.54,-125.96C199.86,-143.54 202.35,-163.37 212,-163.37 219.84,-163.37 222.95,-150.28 221.34,-135.94"/>
<polygon fill="black" stroke="black" points="219.46,-125.96 225.73,-134.96 220.38,-130.87 221.31,-135.79 221.31,-135.79 221.31,-135.79 220.38,-130.87 216.88,-136.62 219.46,-125.96 219.46,-125.96"/>
<text text-anchor="middle" x="212" y="-167.17" font-family="Times New Roman,serif" font-size="14.00">XXR</text>
</g>
</g>
</svg>
