<?xml version="1.0" encoding="UTF-8" standalone="no"?>
<!DOCTYPE svg PUBLIC "-//W3C//DTD SVG 1.1//EN"
 "http://www.w3.org/Graphics/SVG/1.1/DTD/svg11.dtd">
<!-- Generated by graphviz version 2.50.0 (20211204.2007)
 -->
<!-- Title: Aceita todas as sequencias com mais zeros do que uns Pages: 1 -->
<svg width="341pt" height="267pt"
 viewBox="0.00 0.00 341.00 267.00" xmlns="http://www.w3.org/2000/svg" xmlns:xlink="http://www.w3.org/1999/xlink">
<g id="graph0" class="graph" transform="scale(1 1) rotate(0) translate(4 263)">
<title>Aceita todas as sequencias com mais zeros do que uns</title>
<polygon fill="white" stroke="transparent" points="-4,4 -4,-263 337,-263 337,4 -4,4"/>
<!-- Start -->
<g id="node1" class="node">
<title>Start</title>
</g>
<!-- A -->
<g id="node4" class="node">
<title>A</title>
<ellipse fill="none" stroke="black" cx="109" cy="-142" rx="18" ry="18"/>
<text text-anchor="middle" x="109" y="-138.3" font-family="Times New Roman,serif" font-size="14.00">A</text>
</g>
<!-- Start&#45;&gt;A -->
<g id="edge1" class="edge">
<title>Start&#45;&gt;A</title>
<path fill="none" stroke="black" d="M54.19,-142C62.65,-142 72.05,-142 80.6,-142"/>
<polygon fill="black" stroke="black" points="90.83,-142 80.83,-146.5 85.83,-142 80.83,-142 80.83,-142 80.83,-142 85.83,-142 80.83,-137.5 90.83,-142 90.83,-142"/>
</g>
<!-- D -->
<g id="node2" class="node">
<title>D</title>
<ellipse fill="none" stroke="black" cx="208" cy="-142" rx="18" ry="18"/>
<text text-anchor="middle" x="208" y="-138.3" font-family="Times New Roman,serif" font-size="14.00">D</text>
</g>
<!-- D&#45;&gt;D -->
<g id="edge13" class="edge">
<title>D&#45;&gt;D</title>
<path fill="none" stroke="black" d="M203.69,-159.78C202.95,-169.31 204.39,-178 208,-178 210.2,-178 211.59,-174.77 212.18,-170.1"/>
<polygon fill="black" stroke="black" points="212.31,-159.78 216.68,-169.84 212.25,-164.78 212.18,-169.78 212.18,-169.78 212.18,-169.78 212.25,-164.78 207.68,-169.72 212.31,-159.78 212.31,-159.78"/>
<text text-anchor="middle" x="208" y="-181.8" font-family="Times New Roman,serif" font-size="14.00">XXR</text>
</g>
<!-- D&#45;&gt;D -->
<g id="edge14" class="edge">
<title>D&#45;&gt;D</title>
<path fill="none" stroke="black" d="M201.04,-158.86C196.82,-176.38 199.14,-196 208,-196 215.2,-196 218.08,-183.05 216.64,-168.79"/>
<polygon fill="black" stroke="black" points="214.96,-158.86 221.07,-167.97 215.79,-163.79 216.63,-168.72 216.63,-168.72 216.63,-168.72 215.79,-163.79 212.19,-169.48 214.96,-158.86 214.96,-158.86"/>
<text text-anchor="middle" x="208" y="-199.8" font-family="Times New Roman,serif" font-size="14.00">11R</text>
</g>
<!-- C -->
<g id="node5" class="node">
<title>C</title>
<ellipse fill="none" stroke="black" cx="311" cy="-142" rx="18" ry="18"/>
<text text-anchor="middle" x="311" y="-138.3" font-family="Times New Roman,serif" font-size="14.00">C</text>
</g>
<!-- D&#45;&gt;C -->
<g id="edge15" class="edge">
<title>D&#45;&gt;C</title>
<path fill="none" stroke="black" d="M226.13,-142C241.59,-142 264.58,-142 282.59,-142"/>
<polygon fill="black" stroke="black" points="292.78,-142 282.78,-146.5 287.78,-142 282.78,-142 282.78,-142 282.78,-142 287.78,-142 282.78,-137.5 292.78,-142 292.78,-142"/>
<text text-anchor="middle" x="257.5" y="-145.8" font-family="Times New Roman,serif" font-size="14.00">0XL</text>
</g>
<!-- B -->
<g id="node3" class="node">
<title>B</title>
<ellipse fill="none" stroke="black" cx="208" cy="-22" rx="18" ry="18"/>
<text text-anchor="middle" x="208" y="-18.3" font-family="Times New Roman,serif" font-size="14.00">B</text>
</g>
<!-- B&#45;&gt;B -->
<g id="edge5" class="edge">
<title>B&#45;&gt;B</title>
<path fill="none" stroke="black" d="M203.69,-39.78C202.95,-49.31 204.39,-58 208,-58 210.2,-58 211.59,-54.77 212.18,-50.1"/>
<polygon fill="black" stroke="black" points="212.31,-39.78 216.68,-49.84 212.25,-44.78 212.18,-49.78 212.18,-49.78 212.18,-49.78 212.25,-44.78 207.68,-49.72 212.31,-39.78 212.31,-39.78"/>
<text text-anchor="middle" x="208" y="-61.8" font-family="Times New Roman,serif" font-size="14.00">XXR</text>
</g>
<!-- B&#45;&gt;B -->
<g id="edge6" class="edge">
<title>B&#45;&gt;B</title>
<path fill="none" stroke="black" d="M201.04,-38.86C196.82,-56.38 199.14,-76 208,-76 215.2,-76 218.08,-63.05 216.64,-48.79"/>
<polygon fill="black" stroke="black" points="214.96,-38.86 221.07,-47.97 215.79,-43.79 216.63,-48.72 216.63,-48.72 216.63,-48.72 215.79,-43.79 212.19,-49.48 214.96,-38.86 214.96,-38.86"/>
<text text-anchor="middle" x="208" y="-79.8" font-family="Times New Roman,serif" font-size="14.00">00R</text>
</g>
<!-- B&#45;&gt;C -->
<g id="edge8" class="edge">
<title>B&#45;&gt;C</title>
<path fill="none" stroke="black" d="M220.19,-35.3C237.64,-56.02 271.45,-96.2 292.25,-120.91"/>
<polygon fill="black" stroke="black" points="298.76,-128.64 288.87,-123.89 295.54,-124.81 292.32,-120.99 292.32,-120.99 292.32,-120.99 295.54,-124.81 295.76,-118.09 298.76,-128.64 298.76,-128.64"/>
<text text-anchor="middle" x="257.5" y="-96.8" font-family="Times New Roman,serif" font-size="14.00">1XL</text>
</g>
<!-- E -->
<g id="node6" class="node">
<title>E</title>
<ellipse fill="none" stroke="black" cx="311" cy="-22" rx="18" ry="18"/>
<ellipse fill="none" stroke="black" cx="311" cy="-22" rx="22" ry="22"/>
<text text-anchor="middle" x="311" y="-18.3" font-family="Times New Roman,serif" font-size="14.00">E</text>
</g>
<!-- B&#45;&gt;E -->
<g id="edge7" class="edge">
<title>B&#45;&gt;E</title>
<path fill="none" stroke="black" d="M226.13,-22C240.49,-22 261.35,-22 278.68,-22"/>
<polygon fill="black" stroke="black" points="288.92,-22 278.92,-26.5 283.92,-22 278.92,-22 278.92,-22 278.92,-22 283.92,-22 278.92,-17.5 288.92,-22 288.92,-22"/>
<text text-anchor="middle" x="257.5" y="-25.8" font-family="Times New Roman,serif" font-size="14.00">ΔΔS</text>
</g>
<!-- A&#45;&gt;D -->
<g id="edge4" class="edge">
<title>A&#45;&gt;D</title>
<path fill="none" stroke="black" d="M127.34,-142C141.82,-142 162.74,-142 179.5,-142"/>
<polygon fill="black" stroke="black" points="189.81,-142 179.81,-146.5 184.81,-142 179.81,-142 179.81,-142 179.81,-142 184.81,-142 179.81,-137.5 189.81,-142 189.81,-142"/>
<text text-anchor="middle" x="158.5" y="-145.8" font-family="Times New Roman,serif" font-size="14.00">1XR</text>
</g>
<!-- A&#45;&gt;B -->
<g id="edge3" class="edge">
<title>A&#45;&gt;B</title>
<path fill="none" stroke="black" d="M121.13,-128.23C137.86,-107.53 169.67,-68.18 189.52,-43.62"/>
<polygon fill="black" stroke="black" points="196,-35.6 193.22,-46.21 192.86,-39.49 189.72,-43.38 189.72,-43.38 189.72,-43.38 192.86,-39.49 186.22,-40.55 196,-35.6 196,-35.6"/>
<text text-anchor="middle" x="158.5" y="-100.8" font-family="Times New Roman,serif" font-size="14.00">0XR</text>
</g>
<!-- A&#45;&gt;A -->
<g id="edge2" class="edge">
<title>A&#45;&gt;A</title>
<path fill="none" stroke="black" d="M102.62,-159.04C101.32,-168.86 103.45,-178 109,-178 112.47,-178 114.6,-174.43 115.4,-169.35"/>
<polygon fill="black" stroke="black" points="115.38,-159.04 119.9,-169.03 115.39,-164.04 115.4,-169.04 115.4,-169.04 115.4,-169.04 115.39,-164.04 110.9,-169.05 115.38,-159.04 115.38,-159.04"/>
<text text-anchor="middle" x="109" y="-181.8" font-family="Times New Roman,serif" font-size="14.00">XXR</text>
</g>
<!-- C&#45;&gt;A -->
<g id="edge12" class="edge">
<title>C&#45;&gt;A</title>
<path fill="none" stroke="black" d="M301.65,-157.52C288.78,-179.58 261.79,-219.1 226,-235 183.52,-253.87 143.41,-200.18 123.35,-166.67"/>
<polygon fill="black" stroke="black" points="118.24,-157.83 127.14,-164.24 120.74,-162.16 123.25,-166.49 123.25,-166.49 123.25,-166.49 120.74,-162.16 119.35,-168.74 118.24,-157.83 118.24,-157.83"/>
<text text-anchor="middle" x="208" y="-241.8" font-family="Times New Roman,serif" font-size="14.00">ΔΔR</text>
</g>
<!-- C&#45;&gt;C -->
<g id="edge9" class="edge">
<title>C&#45;&gt;C</title>
<path fill="none" stroke="black" d="M307.88,-159.78C307.35,-169.31 308.39,-178 311,-178 312.59,-178 313.59,-174.77 314.02,-170.1"/>
<polygon fill="black" stroke="black" points="314.12,-159.78 318.52,-169.82 314.07,-164.78 314.02,-169.78 314.02,-169.78 314.02,-169.78 314.07,-164.78 309.52,-169.74 314.12,-159.78 314.12,-159.78"/>
<text text-anchor="middle" x="311" y="-181.8" font-family="Times New Roman,serif" font-size="14.00">11L</text>
</g>
<!-- C&#45;&gt;C -->
<g id="edge10" class="edge">
<title>C&#45;&gt;C</title>
<path fill="none" stroke="black" d="M305.88,-159.42C302.96,-176.79 304.67,-196 311,-196 316.09,-196 318.19,-183.56 317.3,-169.65"/>
<polygon fill="black" stroke="black" points="316.12,-159.42 321.74,-168.84 316.69,-164.39 317.27,-169.35 317.27,-169.35 317.27,-169.35 316.69,-164.39 312.79,-169.87 316.12,-159.42 316.12,-159.42"/>
<text text-anchor="middle" x="311" y="-199.8" font-family="Times New Roman,serif" font-size="14.00">00L</text>
</g>
<!-- C&#45;&gt;C -->
<g id="edge11" class="edge">
<title>C&#45;&gt;C</title>
<path fill="none" stroke="black" d="M304.69,-158.99C298.54,-183.52 300.64,-214 311,-214 319.98,-214 322.76,-191.08 319.33,-168.99"/>
<polygon fill="black" stroke="black" points="317.31,-158.99 323.7,-167.91 318.3,-163.89 319.29,-168.8 319.29,-168.8 319.29,-168.8 318.3,-163.89 314.88,-169.68 317.31,-158.99 317.31,-158.99"/>
<text text-anchor="middle" x="311" y="-217.8" font-family="Times New Roman,serif" font-size="14.00">XXL</text>
</g>
</g>
</svg>
