<?xml version="1.0" encoding="UTF-8" standalone="no"?>
<!DOCTYPE svg PUBLIC "-//W3C//DTD SVG 1.1//EN"
 "http://www.w3.org/Graphics/SVG/1.1/DTD/svg11.dtd">
<!-- Generated by graphviz version 2.50.0 (20211204.2007)
 -->
<!-- Title: Cria um símbolo e transfere a sequência para o lado direito do símbolo Pages: 1 -->
<svg width="535pt" height="460pt"
 viewBox="0.00 0.00 535.00 460.00" xmlns="http://www.w3.org/2000/svg" xmlns:xlink="http://www.w3.org/1999/xlink">
<g id="graph0" class="graph" transform="scale(1 1) rotate(0) translate(4 456)">
<title>Cria um símbolo e transfere a sequência para o lado direito do símbolo</title>
<polygon fill="white" stroke="transparent" points="-4,4 -4,-456 531,-456 531,4 -4,4"/>
<!-- Start -->
<g id="node1" class="node">
<title>Start</title>
</g>
<!-- A -->
<g id="node6" class="node">
<title>A</title>
<ellipse fill="none" stroke="black" cx="109" cy="-226" rx="18" ry="18"/>
<text text-anchor="middle" x="109" y="-222.3" font-family="Times New Roman,serif" font-size="14.00">A</text>
</g>
<!-- Start&#45;&gt;A -->
<g id="edge1" class="edge">
<title>Start&#45;&gt;A</title>
<path fill="none" stroke="black" d="M54.19,-226C62.65,-226 72.05,-226 80.6,-226"/>
<polygon fill="black" stroke="black" points="90.83,-226 80.83,-230.5 85.83,-226 80.83,-226 80.83,-226 80.83,-226 85.83,-226 80.83,-221.5 90.83,-226 90.83,-226"/>
</g>
<!-- G -->
<g id="node2" class="node">
<title>G</title>
<ellipse fill="none" stroke="black" cx="408" cy="-335" rx="18" ry="18"/>
<text text-anchor="middle" x="408" y="-331.3" font-family="Times New Roman,serif" font-size="14.00">G</text>
</g>
<!-- G&#45;&gt;G -->
<g id="edge19" class="edge">
<title>G&#45;&gt;G</title>
<path fill="none" stroke="black" d="M404.88,-352.78C404.35,-362.31 405.39,-371 408,-371 409.59,-371 410.59,-367.77 411.02,-363.1"/>
<polygon fill="black" stroke="black" points="411.12,-352.78 415.52,-362.82 411.07,-357.78 411.02,-362.78 411.02,-362.78 411.02,-362.78 411.07,-357.78 406.52,-362.74 411.12,-352.78 411.12,-352.78"/>
<text text-anchor="middle" x="408" y="-374.8" font-family="Times New Roman,serif" font-size="14.00">00R</text>
</g>
<!-- G&#45;&gt;G -->
<g id="edge20" class="edge">
<title>G&#45;&gt;G</title>
<path fill="none" stroke="black" d="M402.88,-352.42C399.96,-369.79 401.67,-389 408,-389 413.09,-389 415.19,-376.56 414.3,-362.65"/>
<polygon fill="black" stroke="black" points="413.12,-352.42 418.74,-361.84 413.69,-357.39 414.27,-362.35 414.27,-362.35 414.27,-362.35 413.69,-357.39 409.79,-362.87 413.12,-352.42 413.12,-352.42"/>
<text text-anchor="middle" x="408" y="-392.8" font-family="Times New Roman,serif" font-size="14.00">11R</text>
</g>
<!-- G&#45;&gt;G -->
<g id="edge21" class="edge">
<title>G&#45;&gt;G</title>
<path fill="none" stroke="black" d="M401.69,-351.99C395.54,-376.52 397.64,-407 408,-407 416.98,-407 419.76,-384.08 416.33,-361.99"/>
<polygon fill="black" stroke="black" points="414.31,-351.99 420.7,-360.91 415.3,-356.89 416.29,-361.8 416.29,-361.8 416.29,-361.8 415.3,-356.89 411.88,-362.68 414.31,-351.99 414.31,-351.99"/>
<text text-anchor="middle" x="408" y="-410.8" font-family="Times New Roman,serif" font-size="14.00">##R</text>
</g>
<!-- I -->
<g id="node8" class="node">
<title>I</title>
<ellipse fill="none" stroke="black" cx="509" cy="-305" rx="18" ry="18"/>
<text text-anchor="middle" x="509" y="-301.3" font-family="Times New Roman,serif" font-size="14.00">I</text>
</g>
<!-- G&#45;&gt;I -->
<g id="edge22" class="edge">
<title>G&#45;&gt;I</title>
<path fill="none" stroke="black" d="M425.35,-330.05C440.75,-325.38 464.09,-318.31 482.04,-312.87"/>
<polygon fill="black" stroke="black" points="491.63,-309.96 483.36,-317.17 486.84,-311.41 482.06,-312.86 482.06,-312.86 482.06,-312.86 486.84,-311.41 480.75,-308.55 491.63,-309.96 491.63,-309.96"/>
<text text-anchor="middle" x="460.5" y="-325.8" font-family="Times New Roman,serif" font-size="14.00">Δ0L</text>
</g>
<!-- C -->
<g id="node3" class="node">
<title>C</title>
<ellipse fill="none" stroke="black" cx="306" cy="-226" rx="18" ry="18"/>
<text text-anchor="middle" x="306" y="-222.3" font-family="Times New Roman,serif" font-size="14.00">C</text>
</g>
<!-- C&#45;&gt;G -->
<g id="edge9" class="edge">
<title>C&#45;&gt;G</title>
<path fill="none" stroke="black" d="M312.06,-243.13C317.42,-258.9 327.17,-282.18 342,-298 352.9,-309.63 368.28,-318.61 381.35,-324.81"/>
<polygon fill="black" stroke="black" points="390.78,-329.01 379.81,-329.05 386.21,-326.98 381.64,-324.94 381.64,-324.94 381.64,-324.94 386.21,-326.98 383.47,-320.83 390.78,-329.01 390.78,-329.01"/>
<text text-anchor="middle" x="355" y="-320.8" font-family="Times New Roman,serif" font-size="14.00">0ΔR</text>
</g>
<!-- D -->
<g id="node4" class="node">
<title>D</title>
<ellipse fill="none" stroke="black" cx="408" cy="-18" rx="18" ry="18"/>
<text text-anchor="middle" x="408" y="-14.3" font-family="Times New Roman,serif" font-size="14.00">D</text>
</g>
<!-- C&#45;&gt;D -->
<g id="edge8" class="edge">
<title>C&#45;&gt;D</title>
<path fill="none" stroke="black" d="M313.42,-209.4C320.14,-192.31 331.19,-165.03 342,-142 358.5,-106.84 379.73,-67.26 393.35,-42.48"/>
<polygon fill="black" stroke="black" points="398.34,-33.44 397.45,-44.37 395.93,-37.81 393.51,-42.19 393.51,-42.19 393.51,-42.19 395.93,-37.81 389.57,-40.02 398.34,-33.44 398.34,-33.44"/>
<text text-anchor="middle" x="355" y="-145.8" font-family="Times New Roman,serif" font-size="14.00">1ΔR</text>
</g>
<!-- J -->
<g id="node9" class="node">
<title>J</title>
<ellipse fill="none" stroke="black" cx="408" cy="-226" rx="18" ry="18"/>
<ellipse fill="none" stroke="black" cx="408" cy="-226" rx="22" ry="22"/>
<text text-anchor="middle" x="408" y="-222.3" font-family="Times New Roman,serif" font-size="14.00">J</text>
</g>
<!-- C&#45;&gt;J -->
<g id="edge10" class="edge">
<title>C&#45;&gt;J</title>
<path fill="none" stroke="black" d="M324.42,-226C338.6,-226 358.97,-226 375.93,-226"/>
<polygon fill="black" stroke="black" points="385.97,-226 375.97,-230.5 380.97,-226 375.97,-226 375.97,-226 375.97,-226 380.97,-226 375.97,-221.5 385.97,-226 385.97,-226"/>
<text text-anchor="middle" x="355" y="-229.8" font-family="Times New Roman,serif" font-size="14.00">##S</text>
</g>
<!-- D&#45;&gt;D -->
<g id="edge11" class="edge">
<title>D&#45;&gt;D</title>
<path fill="none" stroke="black" d="M404.88,-35.78C404.35,-45.31 405.39,-54 408,-54 409.59,-54 410.59,-50.77 411.02,-46.1"/>
<polygon fill="black" stroke="black" points="411.12,-35.78 415.52,-45.82 411.07,-40.78 411.02,-45.78 411.02,-45.78 411.02,-45.78 411.07,-40.78 406.52,-45.74 411.12,-35.78 411.12,-35.78"/>
<text text-anchor="middle" x="408" y="-57.8" font-family="Times New Roman,serif" font-size="14.00">00R</text>
</g>
<!-- D&#45;&gt;D -->
<g id="edge12" class="edge">
<title>D&#45;&gt;D</title>
<path fill="none" stroke="black" d="M402.88,-35.42C399.96,-52.79 401.67,-72 408,-72 413.09,-72 415.19,-59.56 414.3,-45.65"/>
<polygon fill="black" stroke="black" points="413.12,-35.42 418.74,-44.84 413.69,-40.39 414.27,-45.35 414.27,-45.35 414.27,-45.35 413.69,-40.39 409.79,-45.87 413.12,-35.42 413.12,-35.42"/>
<text text-anchor="middle" x="408" y="-75.8" font-family="Times New Roman,serif" font-size="14.00">11R</text>
</g>
<!-- D&#45;&gt;D -->
<g id="edge13" class="edge">
<title>D&#45;&gt;D</title>
<path fill="none" stroke="black" d="M401.69,-34.99C395.54,-59.52 397.64,-90 408,-90 416.98,-90 419.76,-67.08 416.33,-44.99"/>
<polygon fill="black" stroke="black" points="414.31,-34.99 420.7,-43.91 415.3,-39.89 416.29,-44.8 416.29,-44.8 416.29,-44.8 415.3,-39.89 411.88,-45.68 414.31,-34.99 414.31,-34.99"/>
<text text-anchor="middle" x="408" y="-93.8" font-family="Times New Roman,serif" font-size="14.00">##R</text>
</g>
<!-- F -->
<g id="node7" class="node">
<title>F</title>
<ellipse fill="none" stroke="black" cx="509" cy="-141" rx="18" ry="18"/>
<text text-anchor="middle" x="509" y="-137.3" font-family="Times New Roman,serif" font-size="14.00">F</text>
</g>
<!-- D&#45;&gt;F -->
<g id="edge14" class="edge">
<title>D&#45;&gt;F</title>
<path fill="none" stroke="black" d="M419.97,-31.63C437.07,-52.87 470.22,-94.06 490.6,-119.38"/>
<polygon fill="black" stroke="black" points="496.98,-127.31 487.2,-122.34 493.84,-123.41 490.71,-119.52 490.71,-119.52 490.71,-119.52 493.84,-123.41 494.21,-116.69 496.98,-127.31 496.98,-127.31"/>
<text text-anchor="middle" x="460.5" y="-98.8" font-family="Times New Roman,serif" font-size="14.00">Δ1L</text>
</g>
<!-- B -->
<g id="node5" class="node">
<title>B</title>
<ellipse fill="none" stroke="black" cx="206" cy="-226" rx="18" ry="18"/>
<text text-anchor="middle" x="206" y="-222.3" font-family="Times New Roman,serif" font-size="14.00">B</text>
</g>
<!-- B&#45;&gt;C -->
<g id="edge7" class="edge">
<title>B&#45;&gt;C</title>
<path fill="none" stroke="black" d="M224.07,-226C238.88,-226 260.57,-226 277.77,-226"/>
<polygon fill="black" stroke="black" points="287.8,-226 277.8,-230.5 282.8,-226 277.8,-226 277.8,-226 277.8,-226 282.8,-226 277.8,-221.5 287.8,-226 287.8,-226"/>
<text text-anchor="middle" x="256" y="-229.8" font-family="Times New Roman,serif" font-size="14.00">ΔΔR</text>
</g>
<!-- B&#45;&gt;B -->
<g id="edge5" class="edge">
<title>B&#45;&gt;B</title>
<path fill="none" stroke="black" d="M201.69,-243.78C200.95,-253.31 202.39,-262 206,-262 208.2,-262 209.59,-258.77 210.18,-254.1"/>
<polygon fill="black" stroke="black" points="210.31,-243.78 214.68,-253.84 210.25,-248.78 210.18,-253.78 210.18,-253.78 210.18,-253.78 210.25,-248.78 205.68,-253.72 210.31,-243.78 210.31,-243.78"/>
<text text-anchor="middle" x="206" y="-265.8" font-family="Times New Roman,serif" font-size="14.00">11L</text>
</g>
<!-- B&#45;&gt;B -->
<g id="edge6" class="edge">
<title>B&#45;&gt;B</title>
<path fill="none" stroke="black" d="M199.04,-242.86C194.82,-260.38 197.14,-280 206,-280 213.2,-280 216.08,-267.05 214.64,-252.79"/>
<polygon fill="black" stroke="black" points="212.96,-242.86 219.07,-251.97 213.79,-247.79 214.63,-252.72 214.63,-252.72 214.63,-252.72 213.79,-247.79 210.19,-253.48 212.96,-242.86 212.96,-242.86"/>
<text text-anchor="middle" x="206" y="-283.8" font-family="Times New Roman,serif" font-size="14.00">00L</text>
</g>
<!-- A&#45;&gt;B -->
<g id="edge4" class="edge">
<title>A&#45;&gt;B</title>
<path fill="none" stroke="black" d="M127.42,-226C141.35,-226 161.14,-226 177.24,-226"/>
<polygon fill="black" stroke="black" points="187.69,-226 177.69,-230.5 182.69,-226 177.69,-226 177.69,-226 177.69,-226 182.69,-226 177.69,-221.5 187.69,-226 187.69,-226"/>
<text text-anchor="middle" x="157.5" y="-229.8" font-family="Times New Roman,serif" font-size="14.00">Δ#L</text>
</g>
<!-- A&#45;&gt;A -->
<g id="edge2" class="edge">
<title>A&#45;&gt;A</title>
<path fill="none" stroke="black" d="M105.76,-243.78C105.21,-253.31 106.29,-262 109,-262 110.65,-262 111.69,-258.77 112.13,-254.1"/>
<polygon fill="black" stroke="black" points="112.24,-243.78 116.64,-253.83 112.19,-248.78 112.14,-253.78 112.14,-253.78 112.14,-253.78 112.19,-248.78 107.64,-253.74 112.24,-243.78 112.24,-243.78"/>
<text text-anchor="middle" x="109" y="-265.8" font-family="Times New Roman,serif" font-size="14.00">00R</text>
</g>
<!-- A&#45;&gt;A -->
<g id="edge3" class="edge">
<title>A&#45;&gt;A</title>
<path fill="none" stroke="black" d="M103.68,-243.42C100.65,-260.79 102.43,-280 109,-280 114.29,-280 116.47,-267.56 115.54,-253.65"/>
<polygon fill="black" stroke="black" points="114.32,-243.42 119.97,-252.81 114.91,-248.38 115.51,-253.35 115.51,-253.35 115.51,-253.35 114.91,-248.38 111.04,-253.88 114.32,-243.42 114.32,-243.42"/>
<text text-anchor="middle" x="109" y="-283.8" font-family="Times New Roman,serif" font-size="14.00">11R</text>
</g>
<!-- F&#45;&gt;C -->
<g id="edge18" class="edge">
<title>F&#45;&gt;C</title>
<path fill="none" stroke="black" d="M491.4,-145.07C467.53,-151.21 422.37,-163.83 386,-180 366.42,-188.7 345.53,-201.02 330.15,-210.72"/>
<polygon fill="black" stroke="black" points="321.34,-216.36 327.33,-207.17 325.55,-213.66 329.76,-210.96 329.76,-210.96 329.76,-210.96 325.55,-213.66 332.19,-214.75 321.34,-216.36 321.34,-216.36"/>
<text text-anchor="middle" x="408" y="-183.8" font-family="Times New Roman,serif" font-size="14.00">ΔΔR</text>
</g>
<!-- F&#45;&gt;F -->
<g id="edge15" class="edge">
<title>F&#45;&gt;F</title>
<path fill="none" stroke="black" d="M506.12,-158.78C505.64,-168.31 506.59,-177 509,-177 510.47,-177 511.4,-173.77 511.79,-169.1"/>
<polygon fill="black" stroke="black" points="511.88,-158.78 516.29,-168.82 511.83,-163.78 511.79,-168.78 511.79,-168.78 511.79,-168.78 511.83,-163.78 507.29,-168.74 511.88,-158.78 511.88,-158.78"/>
<text text-anchor="middle" x="509" y="-180.8" font-family="Times New Roman,serif" font-size="14.00">11L</text>
</g>
<!-- F&#45;&gt;F -->
<g id="edge16" class="edge">
<title>F&#45;&gt;F</title>
<path fill="none" stroke="black" d="M504.27,-158.42C501.58,-175.79 503.16,-195 509,-195 513.7,-195 515.64,-182.56 514.81,-168.65"/>
<polygon fill="black" stroke="black" points="513.73,-158.42 519.26,-167.89 514.25,-163.39 514.78,-168.36 514.78,-168.36 514.78,-168.36 514.25,-163.39 510.31,-168.84 513.73,-158.42 513.73,-158.42"/>
<text text-anchor="middle" x="509" y="-198.8" font-family="Times New Roman,serif" font-size="14.00">00L</text>
</g>
<!-- F&#45;&gt;F -->
<g id="edge17" class="edge">
<title>F&#45;&gt;F</title>
<path fill="none" stroke="black" d="M503.09,-158.35C497.51,-182.82 499.48,-213 509,-213 517.25,-213 519.83,-190.3 516.73,-168.32"/>
<polygon fill="black" stroke="black" points="514.91,-158.35 521.14,-167.38 515.81,-163.27 516.71,-168.19 516.71,-168.19 516.71,-168.19 515.81,-163.27 512.28,-169 514.91,-158.35 514.91,-158.35"/>
<text text-anchor="middle" x="509" y="-216.8" font-family="Times New Roman,serif" font-size="14.00">##L</text>
</g>
<!-- I&#45;&gt;C -->
<g id="edge26" class="edge">
<title>I&#45;&gt;C</title>
<path fill="none" stroke="black" d="M491.66,-300C461.52,-290.58 395.39,-268.98 342,-245 338.45,-243.4 334.77,-241.59 331.18,-239.73"/>
<polygon fill="black" stroke="black" points="322.08,-234.83 333.02,-235.61 326.48,-237.2 330.89,-239.58 330.89,-239.58 330.89,-239.58 326.48,-237.2 328.75,-243.54 322.08,-234.83 322.08,-234.83"/>
<text text-anchor="middle" x="408" y="-282.8" font-family="Times New Roman,serif" font-size="14.00">ΔΔR</text>
</g>
<!-- I&#45;&gt;I -->
<g id="edge23" class="edge">
<title>I&#45;&gt;I</title>
<path fill="none" stroke="black" d="M506.12,-322.78C505.64,-332.31 506.59,-341 509,-341 510.47,-341 511.4,-337.77 511.79,-333.1"/>
<polygon fill="black" stroke="black" points="511.88,-322.78 516.29,-332.82 511.83,-327.78 511.79,-332.78 511.79,-332.78 511.79,-332.78 511.83,-327.78 507.29,-332.74 511.88,-322.78 511.88,-322.78"/>
<text text-anchor="middle" x="509" y="-344.8" font-family="Times New Roman,serif" font-size="14.00">11L</text>
</g>
<!-- I&#45;&gt;I -->
<g id="edge24" class="edge">
<title>I&#45;&gt;I</title>
<path fill="none" stroke="black" d="M504.27,-322.42C501.58,-339.79 503.16,-359 509,-359 513.7,-359 515.64,-346.56 514.81,-332.65"/>
<polygon fill="black" stroke="black" points="513.73,-322.42 519.26,-331.89 514.25,-327.39 514.78,-332.36 514.78,-332.36 514.78,-332.36 514.25,-327.39 510.31,-332.84 513.73,-322.42 513.73,-322.42"/>
<text text-anchor="middle" x="509" y="-362.8" font-family="Times New Roman,serif" font-size="14.00">00L</text>
</g>
<!-- I&#45;&gt;I -->
<g id="edge25" class="edge">
<title>I&#45;&gt;I</title>
<path fill="none" stroke="black" d="M503.09,-322.35C497.51,-346.82 499.48,-377 509,-377 517.25,-377 519.83,-354.3 516.73,-332.32"/>
<polygon fill="black" stroke="black" points="514.91,-322.35 521.14,-331.38 515.81,-327.27 516.71,-332.19 516.71,-332.19 516.71,-332.19 515.81,-327.27 512.28,-333 514.91,-322.35 514.91,-322.35"/>
<text text-anchor="middle" x="509" y="-380.8" font-family="Times New Roman,serif" font-size="14.00">##L</text>
</g>
</g>
</svg>
