<?xml version="1.0" encoding="UTF-8" standalone="no"?>
<!DOCTYPE svg PUBLIC "-//W3C//DTD SVG 1.1//EN"
 "http://www.w3.org/Graphics/SVG/1.1/DTD/svg11.dtd">
<!-- Generated by graphviz version 2.50.0 (20211204.2007)
 -->
<!-- Title: Elimina a sequência inteira Pages: 1 -->
<svg width="242pt" height="114pt"
 viewBox="0.00 0.00 242.00 114.00" xmlns="http://www.w3.org/2000/svg" xmlns:xlink="http://www.w3.org/1999/xlink">
<g id="graph0" class="graph" transform="scale(1 1) rotate(0) translate(4 110)">
<title>Elimina a sequência inteira</title>
<polygon fill="white" stroke="transparent" points="-4,4 -4,-110 238,-110 238,4 -4,4"/>
<!-- Start -->
<g id="node1" class="node">
<title>Start</title>
</g>
<!-- A -->
<g id="node2" class="node">
<title>A</title>
<ellipse fill="none" stroke="black" cx="109" cy="-22" rx="18" ry="18"/>
<text text-anchor="middle" x="109" y="-18.3" font-family="Times New Roman,serif" font-size="14.00">A</text>
</g>
<!-- Start&#45;&gt;A -->
<g id="edge1" class="edge">
<title>Start&#45;&gt;A</title>
<path fill="none" stroke="black" d="M54.19,-22C62.65,-22 72.05,-22 80.6,-22"/>
<polygon fill="black" stroke="black" points="90.83,-22 80.83,-26.5 85.83,-22 80.83,-22 80.83,-22 80.83,-22 85.83,-22 80.83,-17.5 90.83,-22 90.83,-22"/>
</g>
<!-- A&#45;&gt;A -->
<g id="edge2" class="edge">
<title>A&#45;&gt;A</title>
<path fill="none" stroke="black" d="M105.76,-39.78C105.21,-49.31 106.29,-58 109,-58 110.65,-58 111.69,-54.77 112.13,-50.1"/>
<polygon fill="black" stroke="black" points="112.24,-39.78 116.64,-49.83 112.19,-44.78 112.14,-49.78 112.14,-49.78 112.14,-49.78 112.19,-44.78 107.64,-49.74 112.24,-39.78 112.24,-39.78"/>
<text text-anchor="middle" x="109" y="-61.8" font-family="Times New Roman,serif" font-size="14.00">0ΔR</text>
</g>
<!-- A&#45;&gt;A -->
<g id="edge3" class="edge">
<title>A&#45;&gt;A</title>
<path fill="none" stroke="black" d="M103.68,-39.42C100.65,-56.79 102.43,-76 109,-76 114.29,-76 116.47,-63.56 115.54,-49.65"/>
<polygon fill="black" stroke="black" points="114.32,-39.42 119.97,-48.81 114.91,-44.38 115.51,-49.35 115.51,-49.35 115.51,-49.35 114.91,-44.38 111.04,-49.88 114.32,-39.42 114.32,-39.42"/>
<text text-anchor="middle" x="109" y="-79.8" font-family="Times New Roman,serif" font-size="14.00">1ΔR</text>
</g>
<!-- B -->
<g id="node3" class="node">
<title>B</title>
<ellipse fill="none" stroke="black" cx="212" cy="-22" rx="18" ry="18"/>
<ellipse fill="none" stroke="black" cx="212" cy="-22" rx="22" ry="22"/>
<text text-anchor="middle" x="212" y="-18.3" font-family="Times New Roman,serif" font-size="14.00">B</text>
</g>
<!-- A&#45;&gt;B -->
<g id="edge4" class="edge">
<title>A&#45;&gt;B</title>
<path fill="none" stroke="black" d="M127.13,-22C141.49,-22 162.35,-22 179.68,-22"/>
<polygon fill="black" stroke="black" points="189.92,-22 179.92,-26.5 184.92,-22 179.92,-22 179.92,-22 179.92,-22 184.92,-22 179.92,-17.5 189.92,-22 189.92,-22"/>
<text text-anchor="middle" x="158.5" y="-25.8" font-family="Times New Roman,serif" font-size="14.00">ΔΔS</text>
</g>
</g>
</svg>
