<?xml version="1.0" encoding="UTF-8" standalone="no"?>
<!DOCTYPE svg PUBLIC "-//W3C//DTD SVG 1.1//EN"
 "http://www.w3.org/Graphics/SVG/1.1/DTD/svg11.dtd">
<!-- Generated by graphviz version 2.50.0 (20211204.2007)
 -->
<!-- Title: Aceita códigos postais portugueses Pages: 1 -->
<svg width="854pt" height="1113pt"
 viewBox="0.00 0.00 854.00 1112.87" xmlns="http://www.w3.org/2000/svg" xmlns:xlink="http://www.w3.org/1999/xlink">
<g id="graph0" class="graph" transform="scale(1 1) rotate(0) translate(4 1108.87)">
<title>Aceita códigos postais portugueses</title>
<polygon fill="white" stroke="transparent" points="-4,4 -4,-1108.87 850,-1108.87 850,4 -4,4"/>
<!-- Start -->
<g id="node1" class="node">
<title>Start</title>
</g>
<!-- A -->
<g id="node6" class="node">
<title>A</title>
<ellipse fill="none" stroke="black" cx="109" cy="-185" rx="18" ry="18"/>
<text text-anchor="middle" x="109" y="-181.3" font-family="Times New Roman,serif" font-size="14.00">A</text>
</g>
<!-- Start&#45;&gt;A -->
<g id="edge1" class="edge">
<title>Start&#45;&gt;A</title>
<path fill="none" stroke="black" d="M54.19,-185C62.65,-185 72.05,-185 80.6,-185"/>
<polygon fill="black" stroke="black" points="90.83,-185 80.83,-189.5 85.83,-185 80.83,-185 80.83,-185 80.83,-185 85.83,-185 80.83,-180.5 90.83,-185 90.83,-185"/>
</g>
<!-- G -->
<g id="node2" class="node">
<title>G</title>
<ellipse fill="none" stroke="black" cx="583" cy="-824" rx="18" ry="18"/>
<text text-anchor="middle" x="583" y="-820.3" font-family="Times New Roman,serif" font-size="14.00">G</text>
</g>
<!-- H -->
<g id="node7" class="node">
<title>H</title>
<ellipse fill="none" stroke="black" cx="662" cy="-859" rx="18" ry="18"/>
<text text-anchor="middle" x="662" y="-855.3" font-family="Times New Roman,serif" font-size="14.00">H</text>
</g>
<!-- G&#45;&gt;H -->
<g id="edge68" class="edge">
<title>G&#45;&gt;H</title>
<path fill="none" stroke="black" d="M584.87,-842.13C587.22,-882.45 595.22,-977.55 619,-997 655.94,-1027.22 661.16,-935.96 661.41,-887.35"/>
<polygon fill="black" stroke="black" points="661.39,-877.12 665.91,-887.11 661.4,-882.12 661.41,-887.12 661.41,-887.12 661.41,-887.12 661.4,-882.12 656.91,-887.13 661.39,-877.12 661.39,-877.12"/>
<text text-anchor="middle" x="622.5" y="-1003.8" font-family="Times New Roman,serif" font-size="14.00">0</text>
</g>
<!-- G&#45;&gt;H -->
<g id="edge69" class="edge">
<title>G&#45;&gt;H</title>
<path fill="none" stroke="black" d="M585.96,-841.91C590.01,-875.23 600.52,-944.7 619,-959 645.5,-979.5 655.45,-923.19 659.06,-886.95"/>
<polygon fill="black" stroke="black" points="659.95,-876.89 663.55,-887.25 659.51,-881.87 659.07,-886.85 659.07,-886.85 659.07,-886.85 659.51,-881.87 654.58,-886.45 659.95,-876.89 659.95,-876.89"/>
<text text-anchor="middle" x="622.5" y="-965.8" font-family="Times New Roman,serif" font-size="14.00">1</text>
</g>
<!-- G&#45;&gt;H -->
<g id="edge70" class="edge">
<title>G&#45;&gt;H</title>
<path fill="none" stroke="black" d="M584.63,-841.97C586.5,-864.72 593.51,-903.1 619,-921 635.35,-932.48 647.2,-907.84 654.07,-886.31"/>
<polygon fill="black" stroke="black" points="656.95,-876.46 658.46,-887.33 655.55,-881.26 654.14,-886.06 654.14,-886.06 654.14,-886.06 655.55,-881.26 649.82,-884.79 656.95,-876.46 656.95,-876.46"/>
<text text-anchor="middle" x="622.5" y="-926.8" font-family="Times New Roman,serif" font-size="14.00">2</text>
</g>
<!-- G&#45;&gt;H -->
<g id="edge71" class="edge">
<title>G&#45;&gt;H</title>
<path fill="none" stroke="black" d="M588.95,-841.14C594,-855.17 603.37,-874.1 619,-883 626.45,-887.24 634.63,-884.29 641.78,-879.2"/>
<polygon fill="black" stroke="black" points="649.6,-872.55 644.9,-882.46 645.79,-875.79 641.98,-879.03 641.98,-879.03 641.98,-879.03 645.79,-875.79 639.06,-875.6 649.6,-872.55 649.6,-872.55"/>
<text text-anchor="middle" x="622.5" y="-888.8" font-family="Times New Roman,serif" font-size="14.00">3</text>
</g>
<!-- G&#45;&gt;H -->
<g id="edge72" class="edge">
<title>G&#45;&gt;H</title>
<path fill="none" stroke="black" d="M598.6,-833.73C604.73,-837.56 612.05,-841.8 619,-845 623.94,-847.27 629.35,-849.35 634.6,-851.18"/>
<polygon fill="black" stroke="black" points="644.32,-854.36 633.42,-855.53 639.57,-852.81 634.82,-851.25 634.82,-851.25 634.82,-851.25 639.57,-852.81 636.22,-846.98 644.32,-854.36 644.32,-854.36"/>
<text text-anchor="middle" x="622.5" y="-850.8" font-family="Times New Roman,serif" font-size="14.00">4</text>
</g>
<!-- G&#45;&gt;H -->
<g id="edge73" class="edge">
<title>G&#45;&gt;H</title>
<path fill="none" stroke="black" d="M600.95,-822.17C608.85,-821.97 618.21,-822.69 626,-826 632.25,-828.66 638.07,-832.96 643.09,-837.59"/>
<polygon fill="black" stroke="black" points="650.28,-844.96 640.08,-840.95 646.79,-841.38 643.3,-837.8 643.3,-837.8 643.3,-837.8 646.79,-841.38 646.52,-834.66 650.28,-844.96 650.28,-844.96"/>
<text text-anchor="middle" x="622.5" y="-829.8" font-family="Times New Roman,serif" font-size="14.00">5</text>
</g>
<!-- G&#45;&gt;H -->
<g id="edge74" class="edge">
<title>G&#45;&gt;H</title>
<path fill="none" stroke="black" d="M596.32,-811.75C604.79,-804.87 616.23,-798.64 626,-804 637.36,-810.23 645.56,-821.89 651.15,-832.87"/>
<polygon fill="black" stroke="black" points="655.41,-842.2 647.16,-834.97 653.33,-837.65 651.25,-833.1 651.25,-833.1 651.25,-833.1 653.33,-837.65 655.35,-831.23 655.41,-842.2 655.41,-842.2"/>
<text text-anchor="middle" x="622.5" y="-807.8" font-family="Times New Roman,serif" font-size="14.00">6</text>
</g>
<!-- G&#45;&gt;H -->
<g id="edge75" class="edge">
<title>G&#45;&gt;H</title>
<path fill="none" stroke="black" d="M591.21,-807.87C598.97,-792.88 612.1,-774.1 626,-783 642.51,-793.57 651.34,-814.13 656,-831.2"/>
<polygon fill="black" stroke="black" points="658.39,-841.25 651.7,-832.57 657.24,-836.39 656.08,-831.52 656.08,-831.52 656.08,-831.52 657.24,-836.39 660.46,-830.48 658.39,-841.25 658.39,-841.25"/>
<text text-anchor="middle" x="622.5" y="-786.8" font-family="Times New Roman,serif" font-size="14.00">7</text>
</g>
<!-- G&#45;&gt;H -->
<g id="edge76" class="edge">
<title>G&#45;&gt;H</title>
<path fill="none" stroke="black" d="M587.89,-806.65C593.9,-783.65 606.77,-747.45 626,-761 648.18,-776.63 656.38,-807.66 659.37,-830.63"/>
<polygon fill="black" stroke="black" points="660.44,-840.85 654.93,-831.37 659.92,-835.88 659.4,-830.9 659.4,-830.9 659.4,-830.9 659.92,-835.88 663.88,-830.44 660.44,-840.85 660.44,-840.85"/>
<text text-anchor="middle" x="622.5" y="-764.8" font-family="Times New Roman,serif" font-size="14.00">8</text>
</g>
<!-- G&#45;&gt;H -->
<g id="edge77" class="edge">
<title>G&#45;&gt;H</title>
<path fill="none" stroke="black" d="M585.95,-806.22C589.96,-776.15 600.98,-720.24 626,-739 654.02,-760.01 660.62,-802.22 661.67,-830.55"/>
<polygon fill="black" stroke="black" points="661.84,-840.66 657.18,-830.73 661.76,-835.66 661.67,-830.66 661.67,-830.66 661.67,-830.66 661.76,-835.66 666.17,-830.58 661.84,-840.66 661.84,-840.66"/>
<text text-anchor="middle" x="622.5" y="-742.8" font-family="Times New Roman,serif" font-size="14.00">9</text>
</g>
<!-- L -->
<g id="node10" class="node">
<title>L</title>
<ellipse fill="none" stroke="black" cx="828" cy="-545" rx="18" ry="18"/>
<text text-anchor="middle" x="828" y="-541.3" font-family="Times New Roman,serif" font-size="14.00">L</text>
</g>
<!-- G&#45;&gt;L -->
<g id="edge78" class="edge">
<title>G&#45;&gt;L</title>
<path fill="none" stroke="black" d="M587.71,-806.62C592.52,-786.92 602.34,-754.5 619,-731 668.63,-660.99 704.19,-665.47 767,-607 781.21,-593.77 796.41,-578.05 807.96,-565.74"/>
<polygon fill="black" stroke="black" points="814.97,-558.21 811.45,-568.6 811.56,-561.87 808.15,-565.53 808.15,-565.53 808.15,-565.53 811.56,-561.87 804.86,-562.46 814.97,-558.21 814.97,-558.21"/>
<text text-anchor="middle" x="701.5" y="-660.8" font-family="Times New Roman,serif" font-size="14.00">&#45;</text>
</g>
<!-- C -->
<g id="node3" class="node">
<title>C</title>
<ellipse fill="none" stroke="black" cx="267" cy="-307" rx="18" ry="18"/>
<text text-anchor="middle" x="267" y="-303.3" font-family="Times New Roman,serif" font-size="14.00">C</text>
</g>
<!-- D -->
<g id="node4" class="node">
<title>D</title>
<ellipse fill="none" stroke="black" cx="346" cy="-350" rx="18" ry="18"/>
<text text-anchor="middle" x="346" y="-346.3" font-family="Times New Roman,serif" font-size="14.00">D</text>
</g>
<!-- C&#45;&gt;D -->
<g id="edge24" class="edge">
<title>C&#45;&gt;D</title>
<path fill="none" stroke="black" d="M268.87,-325.13C271.22,-365.45 279.22,-460.55 303,-480 337.66,-508.35 344.04,-424.18 345,-378.04"/>
<polygon fill="black" stroke="black" points="345.14,-368.02 349.5,-378.08 345.07,-373.01 345,-378.01 345,-378.01 345,-378.01 345.07,-373.01 340.5,-377.95 345.14,-368.02 345.14,-368.02"/>
<text text-anchor="middle" x="306.5" y="-486.8" font-family="Times New Roman,serif" font-size="14.00">0</text>
</g>
<!-- C&#45;&gt;D -->
<g id="edge25" class="edge">
<title>C&#45;&gt;D</title>
<path fill="none" stroke="black" d="M269.96,-324.91C274.01,-358.23 284.52,-427.7 303,-442 327.06,-460.62 337.79,-411.9 342.21,-378.46"/>
<polygon fill="black" stroke="black" points="343.44,-368.24 346.72,-378.71 342.84,-373.21 342.25,-378.17 342.25,-378.17 342.25,-378.17 342.84,-373.21 337.78,-377.64 343.44,-368.24 343.44,-368.24"/>
<text text-anchor="middle" x="306.5" y="-448.8" font-family="Times New Roman,serif" font-size="14.00">1</text>
</g>
<!-- C&#45;&gt;D -->
<g id="edge26" class="edge">
<title>C&#45;&gt;D</title>
<path fill="none" stroke="black" d="M268.63,-324.97C270.5,-347.72 277.51,-386.1 303,-404 317.25,-414.01 328.96,-394.83 336.36,-376.62"/>
<polygon fill="black" stroke="black" points="339.92,-367.07 340.64,-378.01 338.17,-371.76 336.43,-376.44 336.43,-376.44 336.43,-376.44 338.17,-371.76 332.21,-374.87 339.92,-367.07 339.92,-367.07"/>
<text text-anchor="middle" x="306.5" y="-409.8" font-family="Times New Roman,serif" font-size="14.00">2</text>
</g>
<!-- C&#45;&gt;D -->
<g id="edge27" class="edge">
<title>C&#45;&gt;D</title>
<path fill="none" stroke="black" d="M272.95,-324.14C278,-338.17 287.37,-357.1 303,-366 309.1,-369.48 316.11,-368.53 322.63,-365.84"/>
<polygon fill="black" stroke="black" points="331.67,-360.96 325,-369.67 327.27,-363.34 322.86,-365.71 322.86,-365.71 322.86,-365.71 327.27,-363.34 320.73,-361.75 331.67,-360.96 331.67,-360.96"/>
<text text-anchor="middle" x="306.5" y="-371.8" font-family="Times New Roman,serif" font-size="14.00">3</text>
</g>
<!-- C&#45;&gt;D -->
<g id="edge28" class="edge">
<title>C&#45;&gt;D</title>
<path fill="none" stroke="black" d="M282.88,-316.18C289.05,-319.93 296.33,-324.25 303,-328 308.61,-331.15 314.71,-334.43 320.48,-337.46"/>
<polygon fill="black" stroke="black" points="329.72,-342.27 318.77,-341.65 325.29,-339.96 320.85,-337.65 320.85,-337.65 320.85,-337.65 325.29,-339.96 322.93,-333.66 329.72,-342.27 329.72,-342.27"/>
<text text-anchor="middle" x="306.5" y="-334.8" font-family="Times New Roman,serif" font-size="14.00">4</text>
</g>
<!-- C&#45;&gt;D -->
<g id="edge29" class="edge">
<title>C&#45;&gt;D</title>
<path fill="none" stroke="black" d="M285.12,-304.8C293.06,-304.51 302.4,-305.27 310,-309 317.92,-312.88 324.75,-319.46 330.22,-326.22"/>
<polygon fill="black" stroke="black" points="336.4,-334.7 326.87,-329.27 333.46,-330.66 330.51,-326.62 330.51,-326.62 330.51,-326.62 333.46,-330.66 334.15,-323.97 336.4,-334.7 336.4,-334.7"/>
<text text-anchor="middle" x="306.5" y="-312.8" font-family="Times New Roman,serif" font-size="14.00">5</text>
</g>
<!-- C&#45;&gt;D -->
<g id="edge30" class="edge">
<title>C&#45;&gt;D</title>
<path fill="none" stroke="black" d="M280.42,-294.57C288.94,-287.6 300.39,-281.35 310,-287 323.23,-294.79 331.82,-309.59 337.18,-322.88"/>
<polygon fill="black" stroke="black" points="340.67,-332.62 333.06,-324.72 338.98,-327.91 337.29,-323.21 337.29,-323.21 337.29,-323.21 338.98,-327.91 341.53,-321.69 340.67,-332.62 340.67,-332.62"/>
<text text-anchor="middle" x="306.5" y="-290.8" font-family="Times New Roman,serif" font-size="14.00">6</text>
</g>
<!-- C&#45;&gt;D -->
<g id="edge31" class="edge">
<title>C&#45;&gt;D</title>
<path fill="none" stroke="black" d="M275.07,-290.7C282.83,-275.23 296.03,-255.65 310,-265 328.88,-277.65 337.59,-302.53 341.6,-322.11"/>
<polygon fill="black" stroke="black" points="343.33,-332.06 337.18,-322.99 342.47,-327.14 341.61,-322.21 341.61,-322.21 341.61,-322.21 342.47,-327.14 346.05,-321.44 343.33,-332.06 343.33,-332.06"/>
<text text-anchor="middle" x="306.5" y="-268.8" font-family="Times New Roman,serif" font-size="14.00">7</text>
</g>
<!-- C&#45;&gt;D -->
<g id="edge32" class="edge">
<title>C&#45;&gt;D</title>
<path fill="none" stroke="black" d="M271.89,-289.32C277.88,-265.89 290.74,-229.04 310,-243 334.65,-260.87 342.26,-296.6 344.44,-321.85"/>
<polygon fill="black" stroke="black" points="345.08,-331.94 339.96,-322.24 344.76,-326.95 344.45,-321.96 344.45,-321.96 344.45,-321.96 344.76,-326.95 348.94,-321.68 345.08,-331.94 345.08,-331.94"/>
<text text-anchor="middle" x="306.5" y="-246.8" font-family="Times New Roman,serif" font-size="14.00">8</text>
</g>
<!-- C&#45;&gt;D -->
<g id="edge33" class="edge">
<title>C&#45;&gt;D</title>
<path fill="none" stroke="black" d="M269.94,-288.97C273.93,-258.48 284.92,-201.82 310,-221 325.93,-233.18 336.3,-287.69 341.36,-321.84"/>
<polygon fill="black" stroke="black" points="342.82,-332.13 336.96,-322.86 342.11,-327.18 341.41,-322.23 341.41,-322.23 341.41,-322.23 342.11,-327.18 345.87,-321.6 342.82,-332.13 342.82,-332.13"/>
<text text-anchor="middle" x="306.5" y="-224.8" font-family="Times New Roman,serif" font-size="14.00">9</text>
</g>
<!-- C&#45;&gt;L -->
<g id="edge34" class="edge">
<title>C&#45;&gt;L</title>
<path fill="none" stroke="black" d="M267.65,-288.75C267.83,-242.99 275.15,-127 345,-127 345,-127 345,-127 465.5,-127 534.85,-127 552.15,-124 621.5,-124 621.5,-124 621.5,-124 746,-124 826.19,-124 828.77,-422.24 827.58,-516.68"/>
<polygon fill="black" stroke="black" points="827.43,-526.91 823.08,-516.84 827.5,-521.91 827.58,-516.91 827.58,-516.91 827.58,-516.91 827.5,-521.91 832.08,-516.98 827.43,-526.91 827.43,-526.91"/>
<text text-anchor="middle" x="543.5" y="-128.8" font-family="Times New Roman,serif" font-size="14.00">&#45;</text>
</g>
<!-- E -->
<g id="node8" class="node">
<title>E</title>
<ellipse fill="none" stroke="black" cx="425" cy="-393" rx="18" ry="18"/>
<text text-anchor="middle" x="425" y="-389.3" font-family="Times New Roman,serif" font-size="14.00">E</text>
</g>
<!-- D&#45;&gt;E -->
<g id="edge35" class="edge">
<title>D&#45;&gt;E</title>
<path fill="none" stroke="black" d="M347.87,-368.13C350.22,-408.45 358.22,-503.55 382,-523 416.66,-551.35 423.04,-467.18 424,-421.04"/>
<polygon fill="black" stroke="black" points="424.14,-411.02 428.5,-421.08 424.07,-416.01 424,-421.01 424,-421.01 424,-421.01 424.07,-416.01 419.5,-420.95 424.14,-411.02 424.14,-411.02"/>
<text text-anchor="middle" x="385.5" y="-529.8" font-family="Times New Roman,serif" font-size="14.00">0</text>
</g>
<!-- D&#45;&gt;E -->
<g id="edge36" class="edge">
<title>D&#45;&gt;E</title>
<path fill="none" stroke="black" d="M348.96,-367.91C353.01,-401.23 363.52,-470.7 382,-485 406.06,-503.62 416.79,-454.9 421.21,-421.46"/>
<polygon fill="black" stroke="black" points="422.44,-411.24 425.72,-421.71 421.84,-416.21 421.25,-421.17 421.25,-421.17 421.25,-421.17 421.84,-416.21 416.78,-420.64 422.44,-411.24 422.44,-411.24"/>
<text text-anchor="middle" x="385.5" y="-491.8" font-family="Times New Roman,serif" font-size="14.00">1</text>
</g>
<!-- D&#45;&gt;E -->
<g id="edge37" class="edge">
<title>D&#45;&gt;E</title>
<path fill="none" stroke="black" d="M347.63,-367.97C349.5,-390.72 356.51,-429.1 382,-447 396.25,-457.01 407.96,-437.83 415.36,-419.62"/>
<polygon fill="black" stroke="black" points="418.92,-410.07 419.64,-421.01 417.17,-414.76 415.43,-419.44 415.43,-419.44 415.43,-419.44 417.17,-414.76 411.21,-417.87 418.92,-410.07 418.92,-410.07"/>
<text text-anchor="middle" x="385.5" y="-452.8" font-family="Times New Roman,serif" font-size="14.00">2</text>
</g>
<!-- D&#45;&gt;E -->
<g id="edge38" class="edge">
<title>D&#45;&gt;E</title>
<path fill="none" stroke="black" d="M351.95,-367.14C357,-381.17 366.37,-400.1 382,-409 388.1,-412.48 395.11,-411.53 401.63,-408.84"/>
<polygon fill="black" stroke="black" points="410.67,-403.96 404,-412.67 406.27,-406.34 401.86,-408.71 401.86,-408.71 401.86,-408.71 406.27,-406.34 399.73,-404.75 410.67,-403.96 410.67,-403.96"/>
<text text-anchor="middle" x="385.5" y="-414.8" font-family="Times New Roman,serif" font-size="14.00">3</text>
</g>
<!-- D&#45;&gt;E -->
<g id="edge39" class="edge">
<title>D&#45;&gt;E</title>
<path fill="none" stroke="black" d="M361.88,-359.18C368.05,-362.93 375.33,-367.25 382,-371 387.61,-374.15 393.71,-377.43 399.48,-380.46"/>
<polygon fill="black" stroke="black" points="408.72,-385.27 397.77,-384.65 404.29,-382.96 399.85,-380.65 399.85,-380.65 399.85,-380.65 404.29,-382.96 401.93,-376.66 408.72,-385.27 408.72,-385.27"/>
<text text-anchor="middle" x="385.5" y="-377.8" font-family="Times New Roman,serif" font-size="14.00">4</text>
</g>
<!-- D&#45;&gt;E -->
<g id="edge40" class="edge">
<title>D&#45;&gt;E</title>
<path fill="none" stroke="black" d="M364.12,-347.8C372.06,-347.51 381.4,-348.27 389,-352 396.92,-355.88 403.75,-362.46 409.22,-369.22"/>
<polygon fill="black" stroke="black" points="415.4,-377.7 405.87,-372.27 412.46,-373.66 409.51,-369.62 409.51,-369.62 409.51,-369.62 412.46,-373.66 413.15,-366.97 415.4,-377.7 415.4,-377.7"/>
<text text-anchor="middle" x="385.5" y="-355.8" font-family="Times New Roman,serif" font-size="14.00">5</text>
</g>
<!-- D&#45;&gt;E -->
<g id="edge41" class="edge">
<title>D&#45;&gt;E</title>
<path fill="none" stroke="black" d="M359.42,-337.57C367.94,-330.6 379.39,-324.35 389,-330 402.23,-337.79 410.82,-352.59 416.18,-365.88"/>
<polygon fill="black" stroke="black" points="419.67,-375.62 412.06,-367.72 417.98,-370.91 416.29,-366.21 416.29,-366.21 416.29,-366.21 417.98,-370.91 420.53,-364.69 419.67,-375.62 419.67,-375.62"/>
<text text-anchor="middle" x="385.5" y="-333.8" font-family="Times New Roman,serif" font-size="14.00">6</text>
</g>
<!-- D&#45;&gt;E -->
<g id="edge42" class="edge">
<title>D&#45;&gt;E</title>
<path fill="none" stroke="black" d="M354.07,-333.7C361.83,-318.23 375.03,-298.65 389,-308 407.88,-320.65 416.59,-345.53 420.6,-365.11"/>
<polygon fill="black" stroke="black" points="422.33,-375.06 416.18,-365.99 421.47,-370.14 420.61,-365.21 420.61,-365.21 420.61,-365.21 421.47,-370.14 425.05,-364.44 422.33,-375.06 422.33,-375.06"/>
<text text-anchor="middle" x="385.5" y="-311.8" font-family="Times New Roman,serif" font-size="14.00">7</text>
</g>
<!-- D&#45;&gt;E -->
<g id="edge43" class="edge">
<title>D&#45;&gt;E</title>
<path fill="none" stroke="black" d="M350.89,-332.32C356.88,-308.89 369.74,-272.04 389,-286 413.65,-303.87 421.26,-339.6 423.44,-364.85"/>
<polygon fill="black" stroke="black" points="424.08,-374.94 418.96,-365.24 423.76,-369.95 423.45,-364.96 423.45,-364.96 423.45,-364.96 423.76,-369.95 427.94,-364.68 424.08,-374.94 424.08,-374.94"/>
<text text-anchor="middle" x="385.5" y="-289.8" font-family="Times New Roman,serif" font-size="14.00">8</text>
</g>
<!-- D&#45;&gt;E -->
<g id="edge44" class="edge">
<title>D&#45;&gt;E</title>
<path fill="none" stroke="black" d="M348.94,-331.97C352.93,-301.48 363.92,-244.82 389,-264 404.93,-276.18 415.3,-330.69 420.36,-364.84"/>
<polygon fill="black" stroke="black" points="421.82,-375.13 415.96,-365.86 421.11,-370.18 420.41,-365.23 420.41,-365.23 420.41,-365.23 421.11,-370.18 424.87,-364.6 421.82,-375.13 421.82,-375.13"/>
<text text-anchor="middle" x="385.5" y="-267.8" font-family="Times New Roman,serif" font-size="14.00">9</text>
</g>
<!-- D&#45;&gt;L -->
<g id="edge45" class="edge">
<title>D&#45;&gt;L</title>
<path fill="none" stroke="black" d="M346.65,-331.75C346.83,-285.99 354.15,-170 424,-170 424,-170 424,-170 746,-170 816.9,-170 825.9,-429.35 826.91,-516.68"/>
<polygon fill="black" stroke="black" points="827.01,-526.91 822.42,-516.95 826.96,-521.91 826.92,-516.91 826.92,-516.91 826.92,-516.91 826.96,-521.91 831.42,-516.87 827.01,-526.91 827.01,-526.91"/>
<text text-anchor="middle" x="583" y="-173.8" font-family="Times New Roman,serif" font-size="14.00">&#45;</text>
</g>
<!-- B -->
<g id="node5" class="node">
<title>B</title>
<ellipse fill="none" stroke="black" cx="188" cy="-246" rx="18" ry="18"/>
<text text-anchor="middle" x="188" y="-242.3" font-family="Times New Roman,serif" font-size="14.00">B</text>
</g>
<!-- B&#45;&gt;C -->
<g id="edge13" class="edge">
<title>B&#45;&gt;C</title>
<path fill="none" stroke="black" d="M189.49,-264.03C191.08,-307.3 197.65,-415.04 224,-437 258.4,-465.67 264.9,-381.35 265.95,-335.1"/>
<polygon fill="black" stroke="black" points="266.1,-325.06 270.45,-335.13 266.03,-330.06 265.95,-335.06 265.95,-335.06 265.95,-335.06 266.03,-330.06 261.45,-334.99 266.1,-325.06 266.1,-325.06"/>
<text text-anchor="middle" x="227.5" y="-443.8" font-family="Times New Roman,serif" font-size="14.00">0</text>
</g>
<!-- B&#45;&gt;C -->
<g id="edge14" class="edge">
<title>B&#45;&gt;C</title>
<path fill="none" stroke="black" d="M190.38,-263.97C193.6,-300.69 203.01,-382.27 224,-399 247.79,-417.96 258.61,-369.12 263.13,-335.57"/>
<polygon fill="black" stroke="black" points="264.38,-325.31 267.63,-335.79 263.77,-330.28 263.17,-335.24 263.17,-335.24 263.17,-335.24 263.77,-330.28 258.7,-334.7 264.38,-325.31 264.38,-325.31"/>
<text text-anchor="middle" x="227.5" y="-405.8" font-family="Times New Roman,serif" font-size="14.00">1</text>
</g>
<!-- B&#45;&gt;C -->
<g id="edge15" class="edge">
<title>B&#45;&gt;C</title>
<path fill="none" stroke="black" d="M188.44,-264.04C188.72,-290.34 193.65,-338.51 224,-361 237.99,-371.37 249.74,-352.14 257.22,-333.82"/>
<polygon fill="black" stroke="black" points="260.82,-324.21 261.52,-335.15 259.07,-328.89 257.31,-333.57 257.31,-333.57 257.31,-333.57 259.07,-328.89 253.1,-331.99 260.82,-324.21 260.82,-324.21"/>
<text text-anchor="middle" x="227.5" y="-366.8" font-family="Times New Roman,serif" font-size="14.00">2</text>
</g>
<!-- B&#45;&gt;C -->
<g id="edge16" class="edge">
<title>B&#45;&gt;C</title>
<path fill="none" stroke="black" d="M191.53,-263.97C195.19,-282.37 203.88,-310.04 224,-323 229.91,-326.8 236.85,-325.95 243.38,-323.25"/>
<polygon fill="black" stroke="black" points="252.47,-318.29 245.84,-327.03 248.08,-320.69 243.69,-323.08 243.69,-323.08 243.69,-323.08 248.08,-320.69 241.53,-319.13 252.47,-318.29 252.47,-318.29"/>
<text text-anchor="middle" x="227.5" y="-328.8" font-family="Times New Roman,serif" font-size="14.00">3</text>
</g>
<!-- B&#45;&gt;C -->
<g id="edge17" class="edge">
<title>B&#45;&gt;C</title>
<path fill="none" stroke="black" d="M199.61,-260.14C206.06,-268.1 214.81,-277.85 224,-285 229.08,-288.95 234.97,-292.54 240.71,-295.62"/>
<polygon fill="black" stroke="black" points="250.04,-300.29 239.08,-299.84 245.57,-298.05 241.1,-295.81 241.1,-295.81 241.1,-295.81 245.57,-298.05 243.12,-291.79 250.04,-300.29 250.04,-300.29"/>
<text text-anchor="middle" x="227.5" y="-292.8" font-family="Times New Roman,serif" font-size="14.00">4</text>
</g>
<!-- B&#45;&gt;C -->
<g id="edge18" class="edge">
<title>B&#45;&gt;C</title>
<path fill="none" stroke="black" d="M205.05,-251.77C213.28,-255.18 223.18,-260 231,-266 237.79,-271.21 244.19,-277.92 249.62,-284.41"/>
<polygon fill="black" stroke="black" points="255.93,-292.36 246.19,-287.32 252.82,-288.44 249.71,-284.53 249.71,-284.53 249.71,-284.53 252.82,-288.44 253.24,-281.73 255.93,-292.36 255.93,-292.36"/>
<text text-anchor="middle" x="227.5" y="-269.8" font-family="Times New Roman,serif" font-size="14.00">5</text>
</g>
<!-- B&#45;&gt;C -->
<g id="edge19" class="edge">
<title>B&#45;&gt;C</title>
<path fill="none" stroke="black" d="M205.17,-240.09C213.43,-238.11 223.33,-237.42 231,-242 244.81,-250.25 253.49,-266.04 258.76,-279.99"/>
<polygon fill="black" stroke="black" points="262.01,-289.69 254.56,-281.64 260.42,-284.95 258.83,-280.21 258.83,-280.21 258.83,-280.21 260.42,-284.95 263.1,-278.78 262.01,-289.69 262.01,-289.69"/>
<text text-anchor="middle" x="227.5" y="-245.8" font-family="Times New Roman,serif" font-size="14.00">6</text>
</g>
<!-- B&#45;&gt;C -->
<g id="edge20" class="edge">
<title>B&#45;&gt;C</title>
<path fill="none" stroke="black" d="M199.85,-231.84C208.42,-222.43 220.63,-212.99 231,-220 250.41,-233.12 259.06,-258.98 262.91,-279.11"/>
<polygon fill="black" stroke="black" points="264.52,-289.02 258.48,-279.87 263.72,-284.09 262.92,-279.15 262.92,-279.15 262.92,-279.15 263.72,-284.09 267.36,-278.43 264.52,-289.02 264.52,-289.02"/>
<text text-anchor="middle" x="227.5" y="-223.8" font-family="Times New Roman,serif" font-size="14.00">7</text>
</g>
<!-- B&#45;&gt;C -->
<g id="edge21" class="edge">
<title>B&#45;&gt;C</title>
<path fill="none" stroke="black" d="M195.02,-229.32C202.42,-211.42 215.88,-186.97 231,-198 256.01,-216.24 263.54,-252.63 265.61,-278.34"/>
<polygon fill="black" stroke="black" points="266.19,-288.61 261.13,-278.89 265.91,-283.62 265.63,-278.63 265.63,-278.63 265.63,-278.63 265.91,-283.62 270.12,-278.38 266.19,-288.61 266.19,-288.61"/>
<text text-anchor="middle" x="227.5" y="-201.8" font-family="Times New Roman,serif" font-size="14.00">8</text>
</g>
<!-- B&#45;&gt;C -->
<g id="edge22" class="edge">
<title>B&#45;&gt;C</title>
<path fill="none" stroke="black" d="M192.28,-228.32C197.81,-202.76 210.43,-160.2 231,-176 247.24,-188.47 257.58,-244.51 262.53,-279.13"/>
<polygon fill="black" stroke="black" points="263.89,-289.11 258.08,-279.81 263.21,-284.16 262.54,-279.2 262.54,-279.2 262.54,-279.2 263.21,-284.16 267,-278.59 263.89,-289.11 263.89,-289.11"/>
<text text-anchor="middle" x="227.5" y="-179.8" font-family="Times New Roman,serif" font-size="14.00">9</text>
</g>
<!-- B&#45;&gt;L -->
<g id="edge23" class="edge">
<title>B&#45;&gt;L</title>
<path fill="none" stroke="black" d="M189.41,-228.04C191.41,-185.87 202.79,-84 266,-84 266,-84 266,-84 746,-84 761.22,-84 789.5,-147.72 792,-156 812.45,-223.58 822.79,-438.64 825.94,-516.51"/>
<polygon fill="black" stroke="black" points="826.35,-526.97 821.46,-517.15 826.15,-521.97 825.95,-516.98 825.95,-516.98 825.95,-516.98 826.15,-521.97 830.45,-516.8 826.35,-526.97 826.35,-526.97"/>
<text text-anchor="middle" x="504" y="-87.8" font-family="Times New Roman,serif" font-size="14.00">&#45;</text>
</g>
<!-- A&#45;&gt;B -->
<g id="edge3" class="edge">
<title>A&#45;&gt;B</title>
<path fill="none" stroke="black" d="M110.97,-202.9C113.52,-242.24 121.88,-334.2 145,-353 172.95,-375.73 182.37,-313.19 185.49,-274.34"/>
<polygon fill="black" stroke="black" points="186.21,-264.1 190,-274.4 185.86,-269.09 185.51,-274.08 185.51,-274.08 185.51,-274.08 185.86,-269.09 181.02,-273.76 186.21,-264.1 186.21,-264.1"/>
<text text-anchor="middle" x="148.5" y="-360.8" font-family="Times New Roman,serif" font-size="14.00">1</text>
</g>
<!-- A&#45;&gt;B -->
<g id="edge4" class="edge">
<title>A&#45;&gt;B</title>
<path fill="none" stroke="black" d="M112.13,-202.75C116.41,-235.05 127.19,-301.35 145,-315 162.81,-328.65 174.76,-298.3 181.22,-273.61"/>
<polygon fill="black" stroke="black" points="183.58,-263.85 185.6,-274.63 182.4,-268.71 181.23,-273.57 181.23,-273.57 181.23,-273.57 182.4,-268.71 176.85,-272.52 183.58,-263.85 183.58,-263.85"/>
<text text-anchor="middle" x="148.5" y="-321.8" font-family="Times New Roman,serif" font-size="14.00">2</text>
</g>
<!-- A&#45;&gt;B -->
<g id="edge5" class="edge">
<title>A&#45;&gt;B</title>
<path fill="none" stroke="black" d="M111.06,-203.21C113.41,-224.94 120.94,-260.41 145,-277 153.68,-282.99 163.15,-277.12 170.9,-268.95"/>
<polygon fill="black" stroke="black" points="177.45,-261.06 174.52,-271.63 174.26,-264.91 171.06,-268.75 171.06,-268.75 171.06,-268.75 174.26,-264.91 167.6,-265.88 177.45,-261.06 177.45,-261.06"/>
<text text-anchor="middle" x="148.5" y="-282.8" font-family="Times New Roman,serif" font-size="14.00">3</text>
</g>
<!-- A&#45;&gt;B -->
<g id="edge6" class="edge">
<title>A&#45;&gt;B</title>
<path fill="none" stroke="black" d="M116.39,-201.64C122.02,-213.97 131.45,-230.12 145,-239 149.44,-241.91 154.71,-243.74 159.98,-244.87"/>
<polygon fill="black" stroke="black" points="169.9,-246.26 159.37,-249.33 164.95,-245.57 160,-244.87 160,-244.87 160,-244.87 164.95,-245.57 160.62,-240.42 169.9,-246.26 169.9,-246.26"/>
<text text-anchor="middle" x="148.5" y="-245.8" font-family="Times New Roman,serif" font-size="14.00">4</text>
</g>
<!-- A&#45;&gt;B -->
<g id="edge7" class="edge">
<title>A&#45;&gt;B</title>
<path fill="none" stroke="black" d="M123.77,-195.91C135.26,-205.01 151.86,-218.16 165.17,-228.71"/>
<polygon fill="black" stroke="black" points="173.35,-235.19 162.72,-232.51 169.43,-232.08 165.51,-228.98 165.51,-228.98 165.51,-228.98 169.43,-232.08 168.31,-225.45 173.35,-235.19 173.35,-235.19"/>
<text text-anchor="middle" x="148.5" y="-220.8" font-family="Times New Roman,serif" font-size="14.00">5</text>
</g>
<!-- A&#45;&gt;B -->
<g id="edge8" class="edge">
<title>A&#45;&gt;B</title>
<path fill="none" stroke="black" d="M127.1,-185.73C135.22,-186.77 144.71,-189.07 152,-194 161.7,-200.56 169.43,-210.79 175.13,-220.45"/>
<polygon fill="black" stroke="black" points="179.97,-229.4 171.26,-222.75 177.59,-225 175.21,-220.61 175.21,-220.61 175.21,-220.61 177.59,-225 179.17,-218.46 179.97,-229.4 179.97,-229.4"/>
<text text-anchor="middle" x="148.5" y="-197.8" font-family="Times New Roman,serif" font-size="14.00">6</text>
</g>
<!-- A&#45;&gt;B -->
<g id="edge9" class="edge">
<title>A&#45;&gt;B</title>
<path fill="none" stroke="black" d="M123.99,-174.49C132.54,-169.44 143.44,-165.55 152,-171 168.26,-181.35 177.09,-201.45 181.81,-218.24"/>
<polygon fill="black" stroke="black" points="184.25,-228.15 177.49,-219.51 183.05,-223.29 181.86,-218.44 181.86,-218.44 181.86,-218.44 183.05,-223.29 186.23,-217.36 184.25,-228.15 184.25,-228.15"/>
<text text-anchor="middle" x="148.5" y="-174.8" font-family="Times New Roman,serif" font-size="14.00">7</text>
</g>
<!-- A&#45;&gt;B -->
<g id="edge10" class="edge">
<title>A&#45;&gt;B</title>
<path fill="none" stroke="black" d="M118.29,-169.38C126.49,-156.04 139.58,-140.28 152,-149 174.01,-164.46 182.24,-195.17 185.28,-217.91"/>
<polygon fill="black" stroke="black" points="186.37,-228.03 180.83,-218.57 185.84,-223.06 185.3,-218.09 185.3,-218.09 185.3,-218.09 185.84,-223.06 189.78,-217.6 186.37,-228.03 186.37,-228.03"/>
<text text-anchor="middle" x="148.5" y="-152.8" font-family="Times New Roman,serif" font-size="14.00">8</text>
</g>
<!-- A&#45;&gt;B -->
<g id="edge11" class="edge">
<title>A&#45;&gt;B</title>
<path fill="none" stroke="black" d="M114.61,-167.71C121.2,-146.22 134.48,-113.89 152,-127 179.83,-147.82 186.48,-189.68 187.59,-217.78"/>
<polygon fill="black" stroke="black" points="187.78,-227.8 183.1,-217.89 187.69,-222.81 187.59,-217.81 187.59,-217.81 187.59,-217.81 187.69,-222.81 192.09,-217.72 187.78,-227.8 187.78,-227.8"/>
<text text-anchor="middle" x="148.5" y="-130.8" font-family="Times New Roman,serif" font-size="14.00">9</text>
</g>
<!-- A&#45;&gt;L -->
<g id="edge2" class="edge">
<title>A&#45;&gt;L</title>
<path fill="none" stroke="black" d="M111.17,-166.97C114.79,-127.72 129.38,-38 187,-38 187,-38 187,-38 746,-38 767.01,-38 786.74,-112.88 792,-136 823.9,-276.21 827.26,-449.47 827.25,-516.59"/>
<polygon fill="black" stroke="black" points="827.22,-526.79 822.75,-516.77 827.23,-521.79 827.25,-516.79 827.25,-516.79 827.25,-516.79 827.23,-521.79 831.75,-516.8 827.22,-526.79 827.22,-526.79"/>
<text text-anchor="middle" x="464.5" y="-41.8" font-family="Times New Roman,serif" font-size="14.00">0</text>
</g>
<!-- A&#45;&gt;L -->
<g id="edge12" class="edge">
<title>A&#45;&gt;L</title>
<path fill="none" stroke="black" d="M109.47,-166.92C109.12,-120.37 115.16,0 187,0 187,0 187,0 746,0 781.89,0 784.55,-66.11 792,-105 821.37,-258.24 826.16,-446.05 826.89,-516.51"/>
<polygon fill="black" stroke="black" points="826.98,-526.79 822.4,-516.83 826.94,-521.79 826.89,-516.79 826.89,-516.79 826.89,-516.79 826.94,-521.79 831.39,-516.75 826.98,-526.79 826.98,-526.79"/>
<text text-anchor="middle" x="464.5" y="-3.8" font-family="Times New Roman,serif" font-size="14.00">&#45;</text>
</g>
<!-- H&#45;&gt;L -->
<g id="edge89" class="edge">
<title>H&#45;&gt;L</title>
<path fill="none" stroke="black" d="M664.39,-876.85C667.65,-913.33 677.13,-994.39 698,-1011 719.03,-1027.74 575.66,-1214.31 792,-1009 823.63,-978.98 826.8,-669.49 827.02,-573.34"/>
<polygon fill="black" stroke="black" points="827.03,-563.2 831.52,-573.21 827.03,-568.2 827.02,-573.2 827.02,-573.2 827.02,-573.2 827.03,-568.2 822.52,-573.2 827.03,-563.2 827.03,-563.2"/>
<text text-anchor="middle" x="745" y="-1074.8" font-family="Times New Roman,serif" font-size="14.00">&#45;</text>
</g>
<!-- I -->
<g id="node11" class="node">
<title>I</title>
<ellipse fill="none" stroke="black" cx="745" cy="-821" rx="18" ry="18"/>
<ellipse fill="none" stroke="black" cx="745" cy="-821" rx="22" ry="22"/>
<text text-anchor="middle" x="745" y="-817.3" font-family="Times New Roman,serif" font-size="14.00">I</text>
</g>
<!-- H&#45;&gt;I -->
<g id="edge79" class="edge">
<title>H&#45;&gt;I</title>
<path fill="none" stroke="black" d="M662.81,-877.26C662.98,-919.66 667.3,-1018.95 705,-989 725.95,-972.35 736.66,-897.04 741.21,-853.11"/>
<polygon fill="black" stroke="black" points="742.22,-842.93 745.71,-853.32 741.73,-847.9 741.24,-852.88 741.24,-852.88 741.24,-852.88 741.73,-847.9 736.76,-852.44 742.22,-842.93 742.22,-842.93"/>
<text text-anchor="middle" x="701.5" y="-995.8" font-family="Times New Roman,serif" font-size="14.00">0</text>
</g>
<!-- H&#45;&gt;I -->
<g id="edge80" class="edge">
<title>H&#45;&gt;I</title>
<path fill="none" stroke="black" d="M664.49,-877.15C667.85,-909.31 677.95,-971.12 705,-951 735.02,-928.67 742.8,-884.03 744.39,-853.34"/>
<polygon fill="black" stroke="black" points="744.71,-843.13 748.89,-853.27 744.55,-848.13 744.39,-853.13 744.39,-853.13 744.39,-853.13 744.55,-848.13 739.89,-852.98 744.71,-843.13 744.71,-843.13"/>
<text text-anchor="middle" x="701.5" y="-957.8" font-family="Times New Roman,serif" font-size="14.00">1</text>
</g>
<!-- H&#45;&gt;I -->
<g id="edge81" class="edge">
<title>H&#45;&gt;I</title>
<path fill="none" stroke="black" d="M668.1,-876.27C674.86,-896.03 687.97,-924.28 705,-913 725.14,-899.66 734.91,-873.63 739.63,-852.64"/>
<polygon fill="black" stroke="black" points="741.56,-842.83 744.04,-853.51 740.6,-847.73 739.63,-852.64 739.63,-852.64 739.63,-852.64 740.6,-847.73 735.21,-851.77 741.56,-842.83 741.56,-842.83"/>
<text text-anchor="middle" x="701.5" y="-918.8" font-family="Times New Roman,serif" font-size="14.00">2</text>
</g>
<!-- H&#45;&gt;I -->
<g id="edge82" class="edge">
<title>H&#45;&gt;I</title>
<path fill="none" stroke="black" d="M676.56,-869.93C684.95,-875.29 695.83,-879.69 705,-875 715.64,-869.56 724.05,-859.71 730.29,-849.9"/>
<polygon fill="black" stroke="black" points="735.41,-841.02 734.31,-851.93 732.91,-845.35 730.41,-849.68 730.41,-849.68 730.41,-849.68 732.91,-845.35 726.52,-847.43 735.41,-841.02 735.41,-841.02"/>
<text text-anchor="middle" x="701.5" y="-879.8" font-family="Times New Roman,serif" font-size="14.00">3</text>
</g>
<!-- H&#45;&gt;I -->
<g id="edge83" class="edge">
<title>H&#45;&gt;I</title>
<path fill="none" stroke="black" d="M678.62,-851.67C689.09,-846.76 703.2,-840.14 715.63,-834.31"/>
<polygon fill="black" stroke="black" points="724.71,-830.05 717.57,-838.37 720.19,-832.17 715.66,-834.29 715.66,-834.29 715.66,-834.29 720.19,-832.17 713.75,-830.22 724.71,-830.05 724.71,-830.05"/>
<text text-anchor="middle" x="701.5" y="-845.8" font-family="Times New Roman,serif" font-size="14.00">4</text>
</g>
<!-- H&#45;&gt;I -->
<g id="edge84" class="edge">
<title>H&#45;&gt;I</title>
<path fill="none" stroke="black" d="M672.33,-843.85C678.46,-835.41 687.32,-825.68 698,-821 702.6,-818.98 707.72,-817.96 712.83,-817.56"/>
<polygon fill="black" stroke="black" points="723.11,-817.5 713.14,-822.05 718.11,-817.53 713.11,-817.55 713.11,-817.55 713.11,-817.55 718.11,-817.53 713.09,-813.05 723.11,-817.5 723.11,-817.5"/>
<text text-anchor="middle" x="701.5" y="-824.8" font-family="Times New Roman,serif" font-size="14.00">5</text>
</g>
<!-- H&#45;&gt;I -->
<g id="edge85" class="edge">
<title>H&#45;&gt;I</title>
<path fill="none" stroke="black" d="M667.95,-841.86C673,-827.83 682.37,-808.9 698,-800 704.87,-796.09 712.59,-797.52 719.72,-801.03"/>
<polygon fill="black" stroke="black" points="728.32,-806.33 717.45,-804.92 724.07,-803.71 719.81,-801.08 719.81,-801.08 719.81,-801.08 724.07,-803.71 722.17,-797.25 728.32,-806.33 728.32,-806.33"/>
<text text-anchor="middle" x="701.5" y="-803.8" font-family="Times New Roman,serif" font-size="14.00">6</text>
</g>
<!-- H&#45;&gt;I -->
<g id="edge86" class="edge">
<title>H&#45;&gt;I</title>
<path fill="none" stroke="black" d="M665.06,-841.18C668.34,-821.88 676.75,-791.97 698,-778 709.43,-770.49 720.68,-780.59 729.19,-792.89"/>
<polygon fill="black" stroke="black" points="734.61,-801.56 725.49,-795.46 731.96,-797.32 729.31,-793.08 729.31,-793.08 729.31,-793.08 731.96,-797.32 733.12,-790.69 734.61,-801.56 734.61,-801.56"/>
<text text-anchor="middle" x="701.5" y="-781.8" font-family="Times New Roman,serif" font-size="14.00">7</text>
</g>
<!-- H&#45;&gt;I -->
<g id="edge87" class="edge">
<title>H&#45;&gt;I</title>
<path fill="none" stroke="black" d="M663.2,-840.78C664.57,-816.78 670.98,-775.36 698,-756 714.74,-744.01 727.57,-767.98 735.38,-790.12"/>
<polygon fill="black" stroke="black" points="738.51,-799.71 731.13,-791.6 736.96,-794.95 735.41,-790.2 735.41,-790.2 735.41,-790.2 736.96,-794.95 739.68,-788.8 738.51,-799.71 738.51,-799.71"/>
<text text-anchor="middle" x="701.5" y="-759.8" font-family="Times New Roman,serif" font-size="14.00">8</text>
</g>
<!-- H&#45;&gt;I -->
<g id="edge88" class="edge">
<title>H&#45;&gt;I</title>
<path fill="none" stroke="black" d="M665.28,-841.29C669.75,-809.8 680.74,-746.12 698,-733 720.73,-715.73 733.3,-757.61 739.34,-789.36"/>
<polygon fill="black" stroke="black" points="741.08,-799.22 734.91,-790.15 740.21,-794.29 739.35,-789.37 739.35,-789.37 739.35,-789.37 740.21,-794.29 743.78,-788.59 741.08,-799.22 741.08,-799.22"/>
<text text-anchor="middle" x="701.5" y="-736.8" font-family="Times New Roman,serif" font-size="14.00">9</text>
</g>
<!-- F -->
<g id="node9" class="node">
<title>F</title>
<ellipse fill="none" stroke="black" cx="504" cy="-767" rx="18" ry="18"/>
<text text-anchor="middle" x="504" y="-763.3" font-family="Times New Roman,serif" font-size="14.00">F</text>
</g>
<!-- E&#45;&gt;F -->
<g id="edge56" class="edge">
<title>E&#45;&gt;F</title>
<path fill="none" stroke="black" d="M429.4,-410.5C435.58,-442.16 449.09,-511.02 461,-569 473.54,-630.04 488.86,-701.52 497.09,-739.69"/>
<polygon fill="black" stroke="black" points="499.22,-749.53 492.71,-740.71 498.16,-744.65 497.11,-739.76 497.11,-739.76 497.11,-739.76 498.16,-744.65 501.51,-738.81 499.22,-749.53 499.22,-749.53"/>
<text text-anchor="middle" x="464.5" y="-604.8" font-family="Times New Roman,serif" font-size="14.00">&#45;</text>
</g>
<!-- E&#45;&gt;L -->
<g id="edge46" class="edge">
<title>E&#45;&gt;L</title>
<path fill="none" stroke="black" d="M426.41,-410.96C428.41,-453.13 439.79,-555 503,-555 503,-555 503,-555 702.5,-555 736.12,-555 774.69,-551.33 799.88,-548.44"/>
<polygon fill="black" stroke="black" points="810.12,-547.22 800.72,-552.87 805.15,-547.81 800.19,-548.4 800.19,-548.4 800.19,-548.4 805.15,-547.81 799.66,-543.93 810.12,-547.22 810.12,-547.22"/>
<text text-anchor="middle" x="622.5" y="-558.8" font-family="Times New Roman,serif" font-size="14.00">0</text>
</g>
<!-- E&#45;&gt;L -->
<g id="edge47" class="edge">
<title>E&#45;&gt;L</title>
<path fill="none" stroke="black" d="M428.62,-410.77C434.77,-445.05 453.59,-517 503,-517 503,-517 503,-517 746,-517 765.96,-517 787.25,-524.69 802.98,-532.01"/>
<polygon fill="black" stroke="black" points="812.01,-536.45 801.05,-536.07 807.52,-534.24 803.03,-532.03 803.03,-532.03 803.03,-532.03 807.52,-534.24 805.02,-528 812.01,-536.45 812.01,-536.45"/>
<text text-anchor="middle" x="622.5" y="-520.8" font-family="Times New Roman,serif" font-size="14.00">1</text>
</g>
<!-- E&#45;&gt;L -->
<g id="edge48" class="edge">
<title>E&#45;&gt;L</title>
<path fill="none" stroke="black" d="M432.1,-409.58C442.48,-434.57 466.13,-479 503,-479 503,-479 503,-479 746,-479 773.84,-479 797.42,-502.73 811.83,-521.73"/>
<polygon fill="black" stroke="black" points="817.79,-530.02 808.3,-524.53 814.87,-525.96 811.96,-521.9 811.96,-521.9 811.96,-521.9 814.87,-525.96 815.61,-519.28 817.79,-530.02 817.79,-530.02"/>
<text text-anchor="middle" x="622.5" y="-482.8" font-family="Times New Roman,serif" font-size="14.00">2</text>
</g>
<!-- E&#45;&gt;L -->
<g id="edge49" class="edge">
<title>E&#45;&gt;L</title>
<path fill="none" stroke="black" d="M437.66,-406.12C451.64,-420.33 476.54,-441 503,-441 503,-441 503,-441 746,-441 785.07,-441 808.05,-487.24 819.03,-518.06"/>
<polygon fill="black" stroke="black" points="822.3,-527.83 814.85,-519.77 820.71,-523.08 819.12,-518.34 819.12,-518.34 819.12,-518.34 820.71,-523.08 823.39,-516.92 822.3,-527.83 822.3,-527.83"/>
<text text-anchor="middle" x="622.5" y="-444.8" font-family="Times New Roman,serif" font-size="14.00">3</text>
</g>
<!-- E&#45;&gt;L -->
<g id="edge50" class="edge">
<title>E&#45;&gt;L</title>
<path fill="none" stroke="black" d="M442.74,-396.44C458.29,-399.33 482.11,-403 503,-403 503,-403 503,-403 746,-403 797.96,-403 817.03,-475.61 823.67,-516.99"/>
<polygon fill="black" stroke="black" points="825.14,-527.02 819.24,-517.77 824.42,-522.07 823.69,-517.12 823.69,-517.12 823.69,-517.12 824.42,-522.07 828.15,-516.47 825.14,-527.02 825.14,-527.02"/>
<text text-anchor="middle" x="622.5" y="-406.8" font-family="Times New Roman,serif" font-size="14.00">4</text>
</g>
<!-- E&#45;&gt;L -->
<g id="edge51" class="edge">
<title>E&#45;&gt;L</title>
<path fill="none" stroke="black" d="M440.76,-384.14C455.85,-375.94 480.24,-365 503,-365 503,-365 503,-365 746,-365 811.61,-365 824.39,-465.67 826.66,-516.44"/>
<polygon fill="black" stroke="black" points="827.01,-526.75 822.17,-516.91 826.84,-521.75 826.67,-516.76 826.67,-516.76 826.67,-516.76 826.84,-521.75 831.17,-516.6 827.01,-526.75 827.01,-526.75"/>
<text text-anchor="middle" x="622.5" y="-368.8" font-family="Times New Roman,serif" font-size="14.00">5</text>
</g>
<!-- E&#45;&gt;L -->
<g id="edge52" class="edge">
<title>E&#45;&gt;L</title>
<path fill="none" stroke="black" d="M434.78,-377.69C447.24,-358.2 472.01,-327 503,-327 503,-327 503,-327 746,-327 776.86,-327 778.14,-351.43 792,-379 814.57,-423.87 822.6,-482.63 825.45,-516.86"/>
<polygon fill="black" stroke="black" points="826.2,-527.06 820.98,-517.42 825.83,-522.07 825.47,-517.09 825.47,-517.09 825.47,-517.09 825.83,-522.07 829.95,-516.75 826.2,-527.06 826.2,-527.06"/>
<text text-anchor="middle" x="622.5" y="-330.8" font-family="Times New Roman,serif" font-size="14.00">6</text>
</g>
<!-- E&#45;&gt;L -->
<g id="edge53" class="edge">
<title>E&#45;&gt;L</title>
<path fill="none" stroke="black" d="M430.34,-375.36C438.81,-345.69 460.54,-289 503,-289 503,-289 503,-289 746,-289 793.36,-289 816.57,-450.27 824.13,-516.81"/>
<polygon fill="black" stroke="black" points="825.25,-527 819.68,-517.55 824.7,-522.03 824.15,-517.06 824.15,-517.06 824.15,-517.06 824.7,-522.03 828.63,-516.57 825.25,-527 825.25,-527"/>
<text text-anchor="middle" x="622.5" y="-292.8" font-family="Times New Roman,serif" font-size="14.00">7</text>
</g>
<!-- E&#45;&gt;L -->
<g id="edge54" class="edge">
<title>E&#45;&gt;L</title>
<path fill="none" stroke="black" d="M427.45,-375.02C431.62,-336.81 447.19,-251 503,-251 503,-251 503,-251 746,-251 800.76,-251 819.91,-443 825.25,-516.68"/>
<polygon fill="black" stroke="black" points="825.96,-527.05 820.78,-517.38 825.62,-522.06 825.27,-517.08 825.27,-517.08 825.27,-517.08 825.62,-522.06 829.76,-516.77 825.96,-527.05 825.96,-527.05"/>
<text text-anchor="middle" x="622.5" y="-254.8" font-family="Times New Roman,serif" font-size="14.00">8</text>
</g>
<!-- E&#45;&gt;L -->
<g id="edge55" class="edge">
<title>E&#45;&gt;L</title>
<path fill="none" stroke="black" d="M425.65,-374.75C425.83,-328.99 433.15,-213 503,-213 503,-213 503,-213 746,-213 808.19,-213 822.84,-435.64 826.11,-516.28"/>
<polygon fill="black" stroke="black" points="826.5,-526.68 821.63,-516.85 826.31,-521.68 826.13,-516.68 826.13,-516.68 826.13,-516.68 826.31,-521.68 830.62,-516.52 826.5,-526.68 826.5,-526.68"/>
<text text-anchor="middle" x="622.5" y="-216.8" font-family="Times New Roman,serif" font-size="14.00">9</text>
</g>
<!-- F&#45;&gt;G -->
<g id="edge57" class="edge">
<title>F&#45;&gt;G</title>
<path fill="none" stroke="black" d="M505.56,-784.97C507.31,-827.55 514.21,-932.59 540,-954 574.45,-982.6 580.93,-898.31 581.96,-852.09"/>
<polygon fill="black" stroke="black" points="582.11,-842.05 586.46,-852.12 582.04,-847.05 581.96,-852.05 581.96,-852.05 581.96,-852.05 582.04,-847.05 577.46,-851.98 582.11,-842.05 582.11,-842.05"/>
<text text-anchor="middle" x="543.5" y="-960.8" font-family="Times New Roman,serif" font-size="14.00">0</text>
</g>
<!-- F&#45;&gt;G -->
<g id="edge58" class="edge">
<title>F&#45;&gt;G</title>
<path fill="none" stroke="black" d="M506.5,-785.05C509.92,-821.08 519.59,-899.83 540,-916 563.84,-934.89 574.65,-886.08 579.15,-852.54"/>
<polygon fill="black" stroke="black" points="580.39,-842.3 583.65,-852.77 579.79,-847.26 579.18,-852.23 579.18,-852.23 579.18,-852.23 579.79,-847.26 574.72,-851.68 580.39,-842.3 580.39,-842.3"/>
<text text-anchor="middle" x="543.5" y="-922.8" font-family="Times New Roman,serif" font-size="14.00">1</text>
</g>
<!-- F&#45;&gt;G -->
<g id="edge59" class="edge">
<title>F&#45;&gt;G</title>
<path fill="none" stroke="black" d="M504.68,-785.28C505.34,-810.87 510.83,-856.61 540,-878 554.05,-888.3 565.78,-869.08 573.24,-850.78"/>
<polygon fill="black" stroke="black" points="576.84,-841.18 577.55,-852.12 575.09,-845.86 573.33,-850.54 573.33,-850.54 573.33,-850.54 575.09,-845.86 569.12,-848.96 576.84,-841.18 576.84,-841.18"/>
<text text-anchor="middle" x="543.5" y="-883.8" font-family="Times New Roman,serif" font-size="14.00">2</text>
</g>
<!-- F&#45;&gt;G -->
<g id="edge60" class="edge">
<title>F&#45;&gt;G</title>
<path fill="none" stroke="black" d="M507.97,-784.72C511.94,-802.18 520.85,-827.94 540,-840 545.95,-843.74 552.9,-842.87 559.43,-840.17"/>
<polygon fill="black" stroke="black" points="568.5,-835.23 561.87,-843.97 564.11,-837.62 559.72,-840.01 559.72,-840.01 559.72,-840.01 564.11,-837.62 557.57,-836.06 568.5,-835.23 568.5,-835.23"/>
<text text-anchor="middle" x="543.5" y="-845.8" font-family="Times New Roman,serif" font-size="14.00">3</text>
</g>
<!-- F&#45;&gt;G -->
<g id="edge61" class="edge">
<title>F&#45;&gt;G</title>
<path fill="none" stroke="black" d="M516.47,-780.29C522.93,-787.28 531.41,-795.69 540,-802 545.18,-805.81 551.12,-809.35 556.86,-812.42"/>
<polygon fill="black" stroke="black" points="566.18,-817.12 555.22,-816.63 561.71,-814.86 557.25,-812.61 557.25,-812.61 557.25,-812.61 561.71,-814.86 559.27,-808.59 566.18,-817.12 566.18,-817.12"/>
<text text-anchor="middle" x="543.5" y="-809.8" font-family="Times New Roman,serif" font-size="14.00">4</text>
</g>
<!-- F&#45;&gt;G -->
<g id="edge62" class="edge">
<title>F&#45;&gt;G</title>
<path fill="none" stroke="black" d="M521.9,-771.31C529.96,-773.88 539.47,-777.69 547,-783 553.99,-787.93 560.45,-794.57 565.87,-801.06"/>
<polygon fill="black" stroke="black" points="572.14,-809.08 562.43,-803.97 569.06,-805.14 565.98,-801.2 565.98,-801.2 565.98,-801.2 569.06,-805.14 569.52,-798.43 572.14,-809.08 572.14,-809.08"/>
<text text-anchor="middle" x="543.5" y="-786.8" font-family="Times New Roman,serif" font-size="14.00">5</text>
</g>
<!-- F&#45;&gt;G -->
<g id="edge63" class="edge">
<title>F&#45;&gt;G</title>
<path fill="none" stroke="black" d="M520.7,-759.61C529.01,-756.82 539.12,-755.33 547,-760 560.59,-768.06 569.24,-783.45 574.55,-797.13"/>
<polygon fill="black" stroke="black" points="577.84,-806.65 570.32,-798.67 576.21,-801.92 574.57,-797.2 574.57,-797.2 574.57,-797.2 576.21,-801.92 578.82,-795.73 577.84,-806.65 577.84,-806.65"/>
<text text-anchor="middle" x="543.5" y="-763.8" font-family="Times New Roman,serif" font-size="14.00">6</text>
</g>
<!-- F&#45;&gt;G -->
<g id="edge64" class="edge">
<title>F&#45;&gt;G</title>
<path fill="none" stroke="black" d="M514.97,-752.39C523.45,-741.81 535.97,-730.58 547,-738 566.05,-750.81 574.73,-775.98 578.69,-795.8"/>
<polygon fill="black" stroke="black" points="580.4,-805.86 574.29,-796.75 579.56,-800.93 578.73,-796 578.73,-796 578.73,-796 579.56,-800.93 583.16,-795.25 580.4,-805.86 580.4,-805.86"/>
<text text-anchor="middle" x="543.5" y="-741.8" font-family="Times New Roman,serif" font-size="14.00">7</text>
</g>
<!-- F&#45;&gt;G -->
<g id="edge65" class="edge">
<title>F&#45;&gt;G</title>
<path fill="none" stroke="black" d="M510.57,-750.05C517.73,-731.1 531.14,-704.47 547,-716 571.83,-734.05 579.4,-770.12 581.52,-795.59"/>
<polygon fill="black" stroke="black" points="582.14,-805.78 577.04,-796.06 581.84,-800.79 581.54,-795.8 581.54,-795.8 581.54,-795.8 581.84,-800.79 586.03,-795.53 582.14,-805.78 582.14,-805.78"/>
<text text-anchor="middle" x="543.5" y="-719.8" font-family="Times New Roman,serif" font-size="14.00">8</text>
</g>
<!-- F&#45;&gt;G -->
<g id="edge66" class="edge">
<title>F&#45;&gt;G</title>
<path fill="none" stroke="black" d="M508.03,-749.04C513.29,-722.51 525.65,-677.63 547,-694 563.14,-706.37 573.51,-761.98 578.5,-796.34"/>
<polygon fill="black" stroke="black" points="579.87,-806.25 574.04,-796.96 579.18,-801.29 578.5,-796.34 578.5,-796.34 578.5,-796.34 579.18,-801.29 582.95,-795.72 579.87,-806.25 579.87,-806.25"/>
<text text-anchor="middle" x="543.5" y="-697.8" font-family="Times New Roman,serif" font-size="14.00">9</text>
</g>
<!-- F&#45;&gt;L -->
<g id="edge67" class="edge">
<title>F&#45;&gt;L</title>
<path fill="none" stroke="black" d="M508.77,-749.53C513.42,-731.63 522.88,-703.97 540,-686 559.85,-665.16 735.84,-585.57 802,-556.08"/>
<polygon fill="black" stroke="black" points="811.29,-551.95 803.98,-560.13 806.72,-553.98 802.15,-556.01 802.15,-556.01 802.15,-556.01 806.72,-553.98 800.32,-551.9 811.29,-551.95 811.29,-551.95"/>
<text text-anchor="middle" x="662" y="-631.8" font-family="Times New Roman,serif" font-size="14.00">&#45;</text>
</g>
<!-- L&#45;&gt;L -->
<g id="edge101" class="edge">
<title>L&#45;&gt;L</title>
<path fill="none" stroke="black" d="M826.55,-563.15C826.33,-572.54 826.81,-581 828,-581 828.72,-581 829.19,-577.86 829.39,-573.28"/>
<polygon fill="black" stroke="black" points="829.45,-563.15 833.89,-573.18 829.42,-568.15 829.39,-573.15 829.39,-573.15 829.39,-573.15 829.42,-568.15 824.89,-573.13 829.45,-563.15 829.45,-563.15"/>
<text text-anchor="middle" x="828" y="-584.8" font-family="Times New Roman,serif" font-size="14.00">0</text>
</g>
<!-- L&#45;&gt;L -->
<g id="edge102" class="edge">
<title>L&#45;&gt;L</title>
<path fill="none" stroke="black" d="M825.59,-562.98C824.31,-580.2 825.11,-599 828,-599 830.33,-599 831.3,-586.83 830.92,-573.1"/>
<polygon fill="black" stroke="black" points="830.41,-562.98 835.41,-572.74 830.66,-567.97 830.91,-572.97 830.91,-572.97 830.91,-572.97 830.66,-567.97 826.42,-573.19 830.41,-562.98 830.41,-562.98"/>
<text text-anchor="middle" x="828" y="-602.8" font-family="Times New Roman,serif" font-size="14.00">1</text>
</g>
<!-- L&#45;&gt;L -->
<g id="edge103" class="edge">
<title>L&#45;&gt;L</title>
<path fill="none" stroke="black" d="M824.96,-563.08C822.28,-587.41 823.29,-617 828,-617 832.07,-617 833.38,-594.95 831.93,-573.26"/>
<polygon fill="black" stroke="black" points="831.04,-563.08 836.39,-572.65 831.47,-568.06 831.91,-573.04 831.91,-573.04 831.91,-573.04 831.47,-568.06 827.43,-573.43 831.04,-563.08 831.04,-563.08"/>
<text text-anchor="middle" x="828" y="-620.8" font-family="Times New Roman,serif" font-size="14.00">2</text>
</g>
<!-- L&#45;&gt;L -->
<g id="edge104" class="edge">
<title>L&#45;&gt;L</title>
<path fill="none" stroke="black" d="M824.52,-563.11C820.25,-594.24 821.41,-635 828,-635 833.9,-635 835.45,-602.38 832.65,-573.22"/>
<polygon fill="black" stroke="black" points="831.48,-563.11 837.1,-572.53 832.05,-568.08 832.63,-573.05 832.63,-573.05 832.63,-573.05 832.05,-568.08 828.16,-573.56 831.48,-563.11 831.48,-563.11"/>
<text text-anchor="middle" x="828" y="-638.8" font-family="Times New Roman,serif" font-size="14.00">3</text>
</g>
<!-- L&#45;&gt;L -->
<g id="edge105" class="edge">
<title>L&#45;&gt;L</title>
<path fill="none" stroke="black" d="M824.25,-562.8C818.21,-600.55 819.46,-653 828,-653 835.8,-653 837.52,-609.18 833.15,-572.81"/>
<polygon fill="black" stroke="black" points="831.75,-562.8 837.59,-572.08 832.44,-567.75 833.13,-572.7 833.13,-572.7 833.13,-572.7 832.44,-567.75 828.67,-573.32 831.75,-562.8 831.75,-562.8"/>
<text text-anchor="middle" x="828" y="-656.8" font-family="Times New Roman,serif" font-size="14.00">4</text>
</g>
<!-- L&#45;&gt;L -->
<g id="edge106" class="edge">
<title>L&#45;&gt;L</title>
<path fill="none" stroke="black" d="M824.01,-562.77C816.19,-606.97 817.52,-671 828,-671 837.7,-671 839.56,-616.13 833.58,-572.9"/>
<polygon fill="black" stroke="black" points="831.99,-562.77 837.98,-571.95 832.76,-567.71 833.54,-572.65 833.54,-572.65 833.54,-572.65 832.76,-567.71 829.09,-573.35 831.99,-562.77 831.99,-562.77"/>
<text text-anchor="middle" x="828" y="-674.8" font-family="Times New Roman,serif" font-size="14.00">5</text>
</g>
<!-- L&#45;&gt;L -->
<g id="edge107" class="edge">
<title>L&#45;&gt;L</title>
<path fill="none" stroke="black" d="M823.84,-562.62C814.17,-613.19 815.56,-689 828,-689 839.64,-689 841.6,-622.64 833.89,-572.68"/>
<polygon fill="black" stroke="black" points="832.16,-562.62 838.29,-571.71 833,-567.54 833.85,-572.47 833.85,-572.47 833.85,-572.47 833,-567.54 829.42,-573.24 832.16,-562.62 832.16,-562.62"/>
<text text-anchor="middle" x="828" y="-692.8" font-family="Times New Roman,serif" font-size="14.00">6</text>
</g>
<!-- L&#45;&gt;L -->
<g id="edge108" class="edge">
<title>L&#45;&gt;L</title>
<path fill="none" stroke="black" d="M823.7,-562.58C812.16,-619.44 813.59,-707 828,-707 841.59,-707 843.64,-629.08 834.14,-572.52"/>
<polygon fill="black" stroke="black" points="832.3,-562.58 838.55,-571.6 833.21,-567.5 834.12,-572.42 834.12,-572.42 834.12,-572.42 833.21,-567.5 829.7,-573.24 832.3,-562.58 832.3,-562.58"/>
<text text-anchor="middle" x="828" y="-710.8" font-family="Times New Roman,serif" font-size="14.00">7</text>
</g>
<!-- L&#45;&gt;L -->
<g id="edge109" class="edge">
<title>L&#45;&gt;L</title>
<path fill="none" stroke="black" d="M823.58,-562.49C810.15,-625.59 811.62,-725 828,-725 843.55,-725 845.67,-635.43 834.35,-572.37"/>
<polygon fill="black" stroke="black" points="832.42,-562.49 838.75,-571.44 833.38,-567.4 834.34,-572.31 834.34,-572.31 834.34,-572.31 833.38,-567.4 829.92,-573.17 832.42,-562.49 832.42,-562.49"/>
<text text-anchor="middle" x="828" y="-728.8" font-family="Times New Roman,serif" font-size="14.00">8</text>
</g>
<!-- L&#45;&gt;L -->
<g id="edge110" class="edge">
<title>L&#45;&gt;L</title>
<path fill="none" stroke="black" d="M823.48,-562.47C808.13,-631.77 809.64,-743 828,-743 845.5,-743 847.69,-641.95 834.57,-572.47"/>
<polygon fill="black" stroke="black" points="832.52,-562.47 838.93,-571.36 833.52,-567.36 834.52,-572.26 834.52,-572.26 834.52,-572.26 833.52,-567.36 830.11,-573.16 832.52,-562.47 832.52,-562.47"/>
<text text-anchor="middle" x="828" y="-746.8" font-family="Times New Roman,serif" font-size="14.00">9</text>
</g>
<!-- L&#45;&gt;L -->
<g id="edge111" class="edge">
<title>L&#45;&gt;L</title>
<path fill="none" stroke="black" d="M823.36,-562.61C806.13,-638.1 807.68,-761 828,-761 847.45,-761 849.7,-648.44 834.76,-572.59"/>
<polygon fill="black" stroke="black" points="832.64,-562.61 839.12,-571.46 833.68,-567.5 834.72,-572.39 834.72,-572.39 834.72,-572.39 833.68,-567.5 830.32,-573.33 832.64,-562.61 832.64,-562.61"/>
<text text-anchor="middle" x="828" y="-764.8" font-family="Times New Roman,serif" font-size="14.00">&#45;</text>
</g>
<!-- I&#45;&gt;L -->
<g id="edge90" class="edge">
<title>I&#45;&gt;L</title>
<path fill="none" stroke="black" d="M745.41,-843.36C744.67,-897.31 747.33,-1027.27 792,-986 822.32,-957.99 826.4,-666.01 826.93,-573.17"/>
<polygon fill="black" stroke="black" points="826.98,-563.11 831.43,-573.13 826.95,-568.11 826.93,-573.11 826.93,-573.11 826.93,-573.11 826.95,-568.11 822.43,-573.09 826.98,-563.11 826.98,-563.11"/>
<text text-anchor="middle" x="788.5" y="-993.8" font-family="Times New Roman,serif" font-size="14.00">0</text>
</g>
<!-- I&#45;&gt;L -->
<g id="edge91" class="edge">
<title>I&#45;&gt;L</title>
<path fill="none" stroke="black" d="M746.78,-843.1C749.06,-887.18 757.95,-979.22 792,-948 819.55,-922.74 825.48,-660.78 826.7,-573.28"/>
<polygon fill="black" stroke="black" points="826.83,-563.04 831.2,-573.1 826.77,-568.04 826.7,-573.04 826.7,-573.04 826.7,-573.04 826.77,-568.04 822.2,-572.98 826.83,-563.04 826.83,-563.04"/>
<text text-anchor="middle" x="788.5" y="-954.8" font-family="Times New Roman,serif" font-size="14.00">1</text>
</g>
<!-- I&#45;&gt;L -->
<g id="edge92" class="edge">
<title>I&#45;&gt;L</title>
<path fill="none" stroke="black" d="M749.16,-842.73C754.77,-875.52 768.19,-931.64 792,-910 816.8,-887.47 824.48,-655.1 826.43,-573.3"/>
<polygon fill="black" stroke="black" points="826.66,-563.23 830.93,-573.33 826.54,-568.23 826.43,-573.22 826.43,-573.22 826.43,-573.22 826.54,-568.23 821.93,-573.12 826.66,-563.23 826.66,-563.23"/>
<text text-anchor="middle" x="788.5" y="-916.8" font-family="Times New Roman,serif" font-size="14.00">2</text>
</g>
<!-- I&#45;&gt;L -->
<g id="edge93" class="edge">
<title>I&#45;&gt;L</title>
<path fill="none" stroke="black" d="M754.08,-841.45C762.85,-860.76 777.54,-884.99 792,-872 814.06,-852.18 823.37,-649.11 826.09,-573.32"/>
<polygon fill="black" stroke="black" points="826.45,-563.1 830.6,-573.25 826.27,-568.1 826.1,-573.1 826.1,-573.1 826.1,-573.1 826.27,-568.1 821.6,-572.94 826.45,-563.1 826.45,-563.1"/>
<text text-anchor="middle" x="788.5" y="-878.8" font-family="Times New Roman,serif" font-size="14.00">3</text>
</g>
<!-- I&#45;&gt;L -->
<g id="edge94" class="edge">
<title>I&#45;&gt;L</title>
<path fill="none" stroke="black" d="M763.48,-833.02C772.91,-837.89 784.17,-840.94 792,-834 811.34,-816.86 822.12,-642.59 825.67,-573.24"/>
<polygon fill="black" stroke="black" points="826.18,-563.05 830.18,-573.27 825.93,-568.05 825.68,-573.04 825.68,-573.04 825.68,-573.04 825.93,-568.05 821.19,-572.82 826.18,-563.05 826.18,-563.05"/>
<text text-anchor="middle" x="788.5" y="-840.8" font-family="Times New Roman,serif" font-size="14.00">4</text>
</g>
<!-- I&#45;&gt;L -->
<g id="edge95" class="edge">
<title>I&#45;&gt;L</title>
<path fill="none" stroke="black" d="M766.37,-814.72C775.64,-810.82 785.89,-804.82 792,-796 816.65,-760.41 824.09,-631.18 826.21,-573.34"/>
<polygon fill="black" stroke="black" points="826.55,-563.09 830.71,-573.23 826.38,-568.08 826.21,-573.08 826.21,-573.08 826.21,-573.08 826.38,-568.08 821.72,-572.93 826.55,-563.09 826.55,-563.09"/>
<text text-anchor="middle" x="788.5" y="-806.8" font-family="Times New Roman,serif" font-size="14.00">5</text>
</g>
<!-- I&#45;&gt;L -->
<g id="edge96" class="edge">
<title>I&#45;&gt;L</title>
<path fill="none" stroke="black" d="M760.6,-805.45C771.04,-793.43 784.52,-775.86 792,-758 818.18,-695.52 824.84,-615.08 826.49,-573.19"/>
<polygon fill="black" stroke="black" points="826.82,-563.16 830.99,-573.31 826.66,-568.16 826.49,-573.16 826.49,-573.16 826.49,-573.16 826.66,-568.16 821.99,-573.01 826.82,-563.16 826.82,-563.16"/>
<text text-anchor="middle" x="788.5" y="-774.8" font-family="Times New Roman,serif" font-size="14.00">6</text>
</g>
<!-- I&#45;&gt;L -->
<g id="edge97" class="edge">
<title>I&#45;&gt;L</title>
<path fill="none" stroke="black" d="M755.55,-801.46C767.45,-776.88 786.85,-735.95 792,-720 808.4,-669.23 818.57,-607.59 823.47,-572.67"/>
<polygon fill="black" stroke="black" points="824.83,-562.73 827.94,-573.24 824.15,-567.68 823.48,-572.64 823.48,-572.64 823.48,-572.64 824.15,-567.68 819.02,-572.03 824.83,-562.73 824.83,-562.73"/>
<text text-anchor="middle" x="788.5" y="-740.8" font-family="Times New Roman,serif" font-size="14.00">7</text>
</g>
<!-- I&#45;&gt;L -->
<g id="edge98" class="edge">
<title>I&#45;&gt;L</title>
<path fill="none" stroke="black" d="M752.52,-800.11C760.07,-776.1 773.02,-735.57 785,-701 787.95,-692.5 789.33,-690.59 792,-682 803.7,-644.38 814.49,-600.08 820.91,-572.27"/>
<polygon fill="black" stroke="black" points="823.15,-562.46 825.31,-573.21 822.03,-567.34 820.92,-572.21 820.92,-572.21 820.92,-572.21 822.03,-567.34 816.53,-571.21 823.15,-562.46 823.15,-562.46"/>
<text text-anchor="middle" x="788.5" y="-704.8" font-family="Times New Roman,serif" font-size="14.00">8</text>
</g>
<!-- I&#45;&gt;L -->
<g id="edge99" class="edge">
<title>I&#45;&gt;L</title>
<path fill="none" stroke="black" d="M750.49,-799.58C757.09,-769.01 770.22,-711.22 785,-663 787.64,-654.4 788.94,-652.46 792,-644 800.85,-619.47 810.74,-591.44 817.74,-571.48"/>
<polygon fill="black" stroke="black" points="821.12,-561.84 822.06,-572.77 819.47,-566.56 817.82,-571.28 817.82,-571.28 817.82,-571.28 819.47,-566.56 813.57,-569.79 821.12,-561.84 821.12,-561.84"/>
<text text-anchor="middle" x="788.5" y="-666.8" font-family="Times New Roman,serif" font-size="14.00">9</text>
</g>
<!-- I&#45;&gt;L -->
<g id="edge100" class="edge">
<title>I&#45;&gt;L</title>
<path fill="none" stroke="black" d="M748.29,-798.99C752.59,-762.15 763.43,-686 785,-625 792.02,-605.16 803.21,-584.14 812.28,-568.63"/>
<polygon fill="black" stroke="black" points="817.6,-559.75 816.33,-570.64 815.03,-564.04 812.46,-568.33 812.46,-568.33 812.46,-568.33 815.03,-564.04 808.6,-566.02 817.6,-559.75 817.6,-559.75"/>
<text text-anchor="middle" x="788.5" y="-628.8" font-family="Times New Roman,serif" font-size="14.00">&#45;</text>
</g>
</g>
</svg>
