<?xml version="1.0" encoding="UTF-8" standalone="no"?>
<!DOCTYPE svg PUBLIC "-//W3C//DTD SVG 1.1//EN"
 "http://www.w3.org/Graphics/SVG/1.1/DTD/svg11.dtd">
<!-- Generated by graphviz version 2.50.0 (20211204.2007)
 -->
<!-- Title: Aceita todas as sequência com numero par de 0 Pages: 1 -->
<svg width="222pt" height="85pt"
 viewBox="0.00 0.00 222.00 85.00" xmlns="http://www.w3.org/2000/svg" xmlns:xlink="http://www.w3.org/1999/xlink">
<g id="graph0" class="graph" transform="scale(1 1) rotate(0) translate(4 81)">
<title>Aceita todas as sequência com numero par de 0</title>
<polygon fill="white" stroke="transparent" points="-4,4 -4,-81 218,-81 218,4 -4,4"/>
<!-- Start -->
<g id="node1" class="node">
<title>Start</title>
</g>
<!-- A -->
<g id="node3" class="node">
<title>A</title>
<ellipse fill="none" stroke="black" cx="113" cy="-22" rx="18" ry="18"/>
<ellipse fill="none" stroke="black" cx="113" cy="-22" rx="22" ry="22"/>
<text text-anchor="middle" x="113" y="-18.3" font-family="Times New Roman,serif" font-size="14.00">A</text>
</g>
<!-- Start&#45;&gt;A -->
<g id="edge1" class="edge">
<title>Start&#45;&gt;A</title>
<path fill="none" stroke="black" d="M54.12,-22C62.54,-22 71.96,-22 80.72,-22"/>
<polygon fill="black" stroke="black" points="90.96,-22 80.96,-26.5 85.96,-22 80.96,-22 80.96,-22 80.96,-22 85.96,-22 80.96,-17.5 90.96,-22 90.96,-22"/>
</g>
<!-- B -->
<g id="node2" class="node">
<title>B</title>
<ellipse fill="none" stroke="black" cx="196" cy="-22" rx="18" ry="18"/>
<text text-anchor="middle" x="196" y="-18.3" font-family="Times New Roman,serif" font-size="14.00">B</text>
</g>
<!-- B&#45;&gt;B -->
<g id="edge5" class="edge">
<title>B&#45;&gt;B</title>
<path fill="none" stroke="black" d="M189.27,-39.04C187.89,-48.86 190.14,-58 196,-58 199.66,-58 201.92,-54.43 202.75,-49.35"/>
<polygon fill="black" stroke="black" points="202.73,-39.04 207.25,-49.03 202.74,-44.04 202.75,-49.04 202.75,-49.04 202.75,-49.04 202.74,-44.04 198.25,-49.05 202.73,-39.04 202.73,-39.04"/>
<text text-anchor="middle" x="196" y="-61.8" font-family="Times New Roman,serif" font-size="14.00">1</text>
</g>
<!-- B&#45;&gt;A -->
<g id="edge4" class="edge">
<title>B&#45;&gt;A</title>
<path fill="none" stroke="black" d="M180.69,-12.13C174.6,-8.51 167.24,-4.84 160,-3 153.51,-1.35 146.74,-2.44 140.45,-4.76"/>
<polygon fill="black" stroke="black" points="131.07,-9.2 138.19,-0.85 135.59,-7.06 140.11,-4.92 140.11,-4.92 140.11,-4.92 135.59,-7.06 142.04,-8.99 131.07,-9.2 131.07,-9.2"/>
<text text-anchor="middle" x="156.5" y="-6.8" font-family="Times New Roman,serif" font-size="14.00">0</text>
</g>
<!-- A&#45;&gt;B -->
<g id="edge2" class="edge">
<title>A&#45;&gt;B</title>
<path fill="none" stroke="black" d="M135.28,-22C145.27,-22 157.28,-22 167.9,-22"/>
<polygon fill="black" stroke="black" points="177.94,-22 167.94,-26.5 172.94,-22 167.94,-22 167.94,-22 167.94,-22 172.94,-22 167.94,-17.5 177.94,-22 177.94,-22"/>
<text text-anchor="middle" x="156.5" y="-25.8" font-family="Times New Roman,serif" font-size="14.00">0</text>
</g>
<!-- A&#45;&gt;A -->
<g id="edge3" class="edge">
<title>A&#45;&gt;A</title>
<path fill="none" stroke="black" d="M105.68,-42.99C104.78,-53.09 107.22,-62 113,-62 116.7,-62 119.04,-58.34 120,-53.06"/>
<polygon fill="black" stroke="black" points="120.32,-42.99 124.5,-53.13 120.16,-47.99 120,-52.99 120,-52.99 120,-52.99 120.16,-47.99 115.5,-52.84 120.32,-42.99 120.32,-42.99"/>
<text text-anchor="middle" x="113" y="-65.8" font-family="Times New Roman,serif" font-size="14.00">1</text>
</g>
</g>
</svg>
